<svg xmlns="http://www.w3.org/2000/svg" viewBox="0 0 238.48 1381.26"><defs><style>.cls-1{fill:#fff;}</style></defs><g id="Calque_2" data-name="Calque 2"><g id="Calque_4" data-name="Calque 4"><polygon class="cls-1" points="48.92 0 60.52 35.47 97.84 35.54 67.69 57.53 79.15 93.05 48.92 71.17 18.68 93.05 30.15 57.53 0 35.54 37.32 35.47 48.92 0"/><polygon class="cls-1" points="189.56 133.53 201.16 169 238.47 169.07 208.33 191.06 219.79 226.58 189.56 204.7 159.32 226.58 170.79 191.06 140.64 169.07 177.96 169 189.56 133.53"/><polygon class="cls-1" points="48.92 288.67 60.52 324.14 97.84 324.21 67.69 346.21 79.15 381.72 48.92 359.84 18.68 381.72 30.15 346.21 0 324.21 37.32 324.14 48.92 288.67"/><polygon class="cls-1" points="189.56 422.2 201.16 457.67 238.47 457.74 208.33 479.73 219.79 515.25 189.56 493.37 159.32 515.25 170.79 479.73 140.64 457.74 177.96 457.67 189.56 422.2"/><polygon class="cls-1" points="48.92 577.34 60.52 612.81 97.84 612.88 67.69 634.88 79.15 670.39 48.92 648.51 18.68 670.39 30.15 634.88 0 612.88 37.32 612.81 48.92 577.34"/><polygon class="cls-1" points="189.56 710.87 201.16 746.34 238.47 746.41 208.33 768.41 219.79 803.92 189.56 782.04 159.32 803.92 170.79 768.41 140.64 746.41 177.96 746.34 189.56 710.87"/><polygon class="cls-1" points="48.92 866.02 60.52 901.49 97.84 901.56 67.69 923.55 79.15 959.06 48.92 937.19 18.68 959.06 30.15 923.55 0 901.56 37.32 901.49 48.92 866.02"/><polygon class="cls-1" points="189.56 999.54 201.16 1035.01 238.47 1035.09 208.33 1057.08 219.79 1092.59 189.56 1070.71 159.32 1092.59 170.79 1057.08 140.64 1035.09 177.96 1035.01 189.56 999.54"/><polygon class="cls-1" points="48.92 1154.69 60.52 1190.16 97.84 1190.23 67.69 1212.22 79.15 1247.74 48.92 1225.86 18.68 1247.74 30.15 1212.22 0 1190.23 37.32 1190.16 48.92 1154.69"/><polygon class="cls-1" points="189.56 1288.22 201.16 1323.69 238.47 1323.76 208.33 1345.75 219.79 1381.26 189.56 1359.39 159.32 1381.26 170.79 1345.75 140.64 1323.76 177.96 1323.69 189.56 1288.22"/></g></g></svg>