<svg xmlns="http://www.w3.org/2000/svg" viewBox="0 0 238.48 1381.26"><defs><style>.cls-1{fill:#fff}</style></defs><g id="Calque_2" data-name="Calque 2"><g id="Calque_4" data-name="Calque 4"><path class="cls-1" d="m48.92 0 11.6 35.47 37.32.07-30.15 21.99 11.46 35.52-30.23-21.88-30.24 21.88 11.47-35.52L0 35.54l37.32-.07L48.92 0zM189.56 133.53l11.6 35.47 37.31.07-30.14 21.99 11.46 35.52-30.23-21.88-30.24 21.88 11.47-35.52-30.15-21.99 37.32-.07 11.6-35.47zM48.92 288.67l11.6 35.47 37.32.07-30.15 22 11.46 35.51-30.23-21.88-30.24 21.88 11.47-35.51-30.15-22 37.32-.07 11.6-35.47zM189.56 422.2l11.6 35.47 37.31.07-30.14 21.99 11.46 35.52-30.23-21.88-30.24 21.88 11.47-35.52-30.15-21.99 37.32-.07 11.6-35.47zM48.92 577.34l11.6 35.47 37.32.07-30.15 22 11.46 35.51-30.23-21.88-30.24 21.88 11.47-35.51-30.15-22 37.32-.07 11.6-35.47zM189.56 710.87l11.6 35.47 37.31.07-30.14 22 11.46 35.51-30.23-21.88-30.24 21.88 11.47-35.51-30.15-22 37.32-.07 11.6-35.47zM48.92 866.02l11.6 35.47 37.32.07-30.15 21.99 11.46 35.51-30.23-21.87-30.24 21.87 11.47-35.51L0 901.56l37.32-.07 11.6-35.47zM189.56 999.54l11.6 35.47 37.31.08-30.14 21.99 11.46 35.51-30.23-21.88-30.24 21.88 11.47-35.51-30.15-21.99 37.32-.08 11.6-35.47zM48.92 1154.69l11.6 35.47 37.32.07-30.15 21.99 11.46 35.52-30.23-21.88-30.24 21.88 11.47-35.52L0 1190.23l37.32-.07 11.6-35.47zM189.56 1288.22l11.6 35.47 37.31.07-30.14 21.99 11.46 35.51-30.23-21.87-30.24 21.87 11.47-35.51-30.15-21.99 37.32-.07 11.6-35.47z"/></g></g></svg>