<svg xmlns="http://www.w3.org/2000/svg" width="96" height="96">
  <path style="stroke:none;fill-rule:nonzero;fill:#fff;fill-opacity:1" d="M48.004 1.332c-25.777 0-46.672 20.895-46.672 46.672 0 25.773 20.895 46.668 46.672 46.668 25.773 0 46.668-20.895 46.668-46.668 0-25.777-20.895-46.672-46.668-46.672Zm0 0"/>
  <path style="stroke:none;fill-rule:nonzero;fill:#fe4463;fill-opacity:1" d="M24.668 36.336H34v35h-9.332Zm4.64-4.668h-.054c-2.785 0-4.586-2.078-4.586-4.668 0-2.648 1.855-4.664 4.691-4.664 2.84 0 4.59 2.016 4.641 4.664 0 2.59-1.8 4.668-4.691 4.668Zm44.36 17.5c0-7.09-5.742-12.832-12.832-12.832-4.344 0-8.18 2.164-10.5 5.469v-5.47H41v35h9.336V52.669c0-3.867 3.133-7 7-7s7 3.133 7 7v18.668h9.332V49.168Zm0 0"/>
</svg>
