<svg xmlns="http://www.w3.org/2000/svg" viewBox="0 0 391.14 113.02"><defs><style>.cls-2{fill:#fcee58}</style></defs><g id="Calque_2" data-name="Calque 2"><g id="Calque_5" data-name="Calque 5"><path d="M.45 6.46c-1 4.84 0 25 0 25l6 81.54 384.65-.81V0L144.44 9.69Z" style="fill:#fe4463"/><path class="cls-2" d="M61.4 78c-3-3.33-8.59-7.69-12.39-10.44v.11c0 .46-.25 1.15-.25 1.61-.13 1.83-.13 3.67-.13 5.51 0 4.93.38 9.75.38 14.69 0 1.72.13 3.67.13 5.16 0 1.26-.13 2.18-.38 2.18l-6.32.35c-1.52.11-3.54.11-5.18.11-2.15 0-3.92-.11-4.3-.69-.13-1.59-.13-3.59-.13-5.59v-6.45c-.25-4.13-.38-8.26-.38-12.51 0-1.26.13-2.41.13-3.67-.13-11.25-1.39-22.37-1.39-33.74 0-2.18.12-4.25.12-6.43 0-1.14-.12-2.87-.12-4a5.43 5.43 0 0 1 .12-1.61c.38-.69 2.53-.57 4.56-.69 5.43-.23 10.74-.46 16.3-.46.76 0 1.65.12 2.53.12.51 0 1-.12 1.52-.12C70 21.43 81.76 29 81.76 41.63c-.13 6.2-1.26 11-4.8 14.12a34.61 34.61 0 0 1-9.87 6.19 66.75 66.75 0 0 1 5.69 6V68h.13c1.64 1.72 3.16 3.44 4.8 5.16a70.51 70.51 0 0 1 5.06 5.28c4.3 5.16 9.11 9.87 13.15 15.15.63.8 2.53 3.33 2.53 4.7 0 .81-3.41 1-6.7 1-1.52 0-2.78-.12-3.92-.12h-.76c-1.64.12-3.41.35-4.8.35a3 3 0 0 1-2-.46 67 67 0 0 1-4.8-5.4h-.13v-.11a59.37 59.37 0 0 1-5.81-6.54c-1.27-1.72-2.91-3.45-4.3-5-1.42-1.25-2.56-2.62-3.83-4.01ZM47.24 33.83c0 .23-.12.46-.12.69-.26 2.63-.26 5.5-.26 8.37a88.52 88.52 0 0 0 .76 11.82c.38 0 .64.12 1 .12A17.57 17.57 0 0 0 62 48.75c1-1.5 2.27-3 2.65-5 0-.46.13-.92.13-1.27a9.64 9.64 0 0 0-2-6.31A7.91 7.91 0 0 0 60 34.52a18.14 18.14 0 0 0-5.69-.69h-7.07ZM109.84 20.63h.16a13 13 0 0 1 2.15.23c.51 0 1.14.11 1.77.11s1.39-.11 2-.11a5.26 5.26 0 0 1 2.78.46c.63.57.76 5.39.76 8.26v1.72c0 2.07-.13 3.44-.38 3.67-.63.58-2.4.69-4.3.69-1.39 0-2.53-.11-3.41-.11h-.51c-.51 0-1.77.11-3 .11a5.69 5.69 0 0 1-2.41-.34c-.76-.69-1-3.1-1-7.69 0-3.44.25-6.89.89-6.89s3.66-.11 4.5-.11Zm7.21 21.69h.88c.76 0 1.52 0 1.64.46C120.71 50.58 121 73.53 121 84v4.13c0 .57.13 1.26.13 1.84v8.72c-.38.69-1.26.8-3 .8h-1c-1.4.12-2.79.12-4 .12-2.53 0-4.55-.23-4.93-1-.76-4.7-.63-9-.76-13.42-.13-10.68-.63-16.65-1.26-28.81v-2.7c0-.46-.13-3.67-.13-6.43 0-2.52 0-4.7.5-4.82h7.84c1.01 0 1.9-.11 2.66-.11ZM358.17 95.79v.8c0 .69 0 1.38-.46 1.49-7.45 1-29.35 1-39.31 1h-3.95c-.54 0-1.2.1-1.75.1l-8.32-.18h-2.85c-.65-.35-.75-1.16-.73-2.76v-.92c-.09-1.26-.08-2.53-.07-3.67 0-2.3.26-4.13 1-4.47 4.5-.65 11.39-.48 15.66-.56 10.18 0 15.88-.45 27.49-.93h2.52c.44 0 3.51-.09 6.13-.07 2.41 0 4.49 0 4.6.5v2.29l-.05 4.82c0 1.07.1 1.87.09 2.56ZM133.52 29.92c0-3.78.25-7 1.14-7.34.89 0 6.57 3.9 7.59 4.59a208.64 208.64 0 0 1 18.46 15.26c4.29 4 9.1 7.35 13.52 11.25 3.54 3.1 7.34 6 10.62 9.18a89.27 89.27 0 0 1 8.85 9.07 7.72 7.72 0 0 0 .13-1.72c.13-1.38.38-2.76.51-4.25.38-4.13 2.27-45 3.54-45h2.65c3.67 0 8.6.23 8.6 2.52 0 5.28-.38 22.19-.51 27.35v1.38c-.62 14.9-1.89 25.46-2.53 39.79-.12 2.07 0 4.71-.75 6.43a1.76 1.76 0 0 1-1.77 1.15 2.62 2.62 0 0 1-1.52-.46 52.45 52.45 0 0 1-7.33-6.32c-7.08-7-15.43-12.73-22.51-19.62-4.3-4.13-9-8-13.27-12.16-2.28-2.19-4.68-4.14-6.83-6.32-.63-.57-1-1.26-1.65-1.83-1.26-1.38-.37-1-1.89-2.18.38 8.26.76 17.21.76 26.16 0 3.33-.13 6.54-.13 9.87 0 1.26.13 3 .13 4.71 0 2.52 0 5.16-.13 6.77 0 .46-.63.46-1.39.46-1.27 0-3.29-.35-4.8-.35h-.38c-1.77.12-4.3.35-5.95.35-1.13 0-2-.12-2-.46l-.25-5.74V90.4c0-4 .25-8 .25-11.93 0-1.15-.13-2.3-.13-3.33-.25-11.7 0-23.07-.63-34.31-.15-1.95-.4-6.77-.4-10.91ZM271.38 69.35c-5.19 0-13-.33-17.58-.55h-1c-2.15 0-2.53-.66-2.53-2.31a8.61 8.61 0 0 1 0-1.76c0-.55.13-1 .13-1.54v-2.53c0-1.88.25-3.09 1.89-3.09 2.41.22 5.44.22 8.73.22h6.19c2.15 0 4.18 0 6.07.11h1.14c1.77 0 3.79-.11 5.56-.11s3.29.11 4.18.88c1.64 1.44 1.64 5 1.64 7.6 0 2.42.13 4.63.13 6.94V91.6c0 2.42-.13 4.62-1.27 5.61-2.4 2.09-11.25 2.86-19.34 2.86-3.8 0-7.59-.22-10.37-.44-6.45-.66-12.64-2.53-16.82-5.28-11.63-7.49-18.33-17.07-18.33-34.46 0-17.84 8.22-34.69 24.4-38.76a47.51 47.51 0 0 1 9-1.65c.76 0 1.52-.11 2.15-.11 6.45 0 12.14 1.76 17.07 3.41 2.78.88 10.11 3.41 10.11 5.17s-3.92 11.24-5.44 11.24c-1 0-5.68-2.54-7.2-3.53h-.13c-2.78-1.54-5.56-3.41-10.24-3.41a22.21 22.21 0 0 0-13.28 4.18c-7 5.51-10.87 14.43-10.87 23.46a28.65 28.65 0 0 0 6.7 18.6c3.92 4.41 12.52 7.71 21.5 7.71a23.58 23.58 0 0 0 2.78-.11c2.27-.33 5.81-.88 6.57-2.64a12.5 12.5 0 0 0 .13-2.2c0-4.08-.51-7.93-.51-12-.41-.01-.79.1-1.16.1ZM330.24 21.26a23.68 23.68 0 0 1 11.12 2.48c8.85 4.85 18.08 15.08 18.08 27.14-.12 6.35-1.39 11.63-4.55 15.72-4.68 6.46-11 13.68-22.88 13.68h-1a34.2 34.2 0 0 1-9.74-1.08c-8.22-2.58-15.68-7-19.34-13.57A40.41 40.41 0 0 1 297.24 48c0-13.67 13-23.47 26.42-26.06a34.14 34.14 0 0 1 6.58-.68Zm-15.93 33.82c2.9 5.82 7.71 10 17.32 10 7.46 0 11.76-6.57 12.77-12.17a23.81 23.81 0 0 0 .25-2.91 14.14 14.14 0 0 0-6.07-12.17 17 17 0 0 0-19.59.64 12.46 12.46 0 0 0-5.44 8.41c0 1-.25 2-.25 3a10.76 10.76 0 0 0 1.01 5.2Z"/></g></g></svg>