<svg xmlns="http://www.w3.org/2000/svg" viewBox="0 0 398.44 120.96"><defs><style>.cls-1{fill:#78cecd;stroke:#28386e;stroke-miterlimit:10;stroke-width:8px;}.cls-2{fill:#f5f5f5;}.cls-3{fill:#29386f;}</style></defs><g id="Calque_2" data-name="Calque 2"><g id="Calque_5" data-name="Calque 5"><rect class="cls-1" x="4" y="4" width="390.44" height="112.96" rx="29.45"/><polygon class="cls-2" points="52.04 67.78 54.18 71.42 71.46 71.42 68.97 67.82 52.04 67.78"/><polygon class="cls-2" points="54.53 72.02 56.68 75.65 74.4 75.65 71.91 72.06 54.53 72.02"/><path class="cls-2" d="M82,33.35C78.8,31,74.42,29.76,69.08,29.76H54.22a10.29,10.29,0,0,0-8.06,3.16l-.38.43Z"/><polygon class="cls-2" points="57.03 76.25 59.17 79.88 77.34 79.88 74.85 76.3 57.03 76.25"/><path class="cls-2" d="M72.65,46.68a6.9,6.9,0,0,1,.27,2,8,8,0,0,1-.18,1.62H87.1a22.89,22.89,0,0,0,.53-3.55Z"/><path class="cls-2" d="M70.36,54.5H85.71A26.57,26.57,0,0,0,86.93,51l-14.37,0A9,9,0,0,1,70.36,54.5Z"/><path class="cls-2" d="M77.79,80.53l-18.26,0,2.14,3.62H79.91A15.56,15.56,0,0,0,78.1,81Z"/><path class="cls-2" d="M47.51,88.34a33.43,33.43,0,0,0,.86-3.43l0-.22-14.66,0-.06.26a24.16,24.16,0,0,0-.56,3.43Z"/><path class="cls-2" d="M79.78,89,64.53,89l.72,1.22a16.93,16.93,0,0,0,1.67,2.39H77.15A9.08,9.08,0,0,0,79.78,89Z"/><path class="cls-2" d="M87.35,41.81a13.66,13.66,0,0,0-1.22-3.55l-42.51-.11c-.17.66-.34,1.4-.53,2.25l-.3,1.41Z"/><path class="cls-2" d="M76.29,93.22l-8.78,0a5.21,5.21,0,0,0,3.78,1.58A9.12,9.12,0,0,0,76.29,93.22Z"/><path class="cls-2" d="M80.12,84.77,62,84.72l2.13,3.62H80a7.13,7.13,0,0,0,.31-2A6.2,6.2,0,0,0,80.12,84.77Z"/><path class="cls-2" d="M85.79,37.58a13.44,13.44,0,0,0-3-3.56l-37.51-.09a10.82,10.82,0,0,0-1.56,3.66Z"/><polygon class="cls-2" points="48.54 84.11 49.31 80.46 34.64 80.43 33.86 84.11 48.54 84.11"/><polygon class="cls-2" points="49.43 79.88 50.21 76.23 35.53 76.2 34.75 79.88 49.43 79.88"/><polygon class="cls-2" points="50.33 75.65 51.1 72.01 36.42 71.97 35.65 75.65 50.33 75.65"/><path class="cls-2" d="M44.67,92.57A7.69,7.69,0,0,0,46.16,91a11.21,11.21,0,0,0,1.14-2.12l-14.18,0a6,6,0,0,0,1.2,3.69Z"/><polygon class="cls-2" points="51.23 71.42 52 67.78 37.32 67.74 36.54 71.42 51.23 71.42"/><path class="cls-2" d="M43.89,93.14l-9.09,0a5.72,5.72,0,0,0,4.07,1.57A9.59,9.59,0,0,0,43.89,93.14Z"/><path class="cls-2" d="M68.53,67.19l0,0c4.57-.89,7.58-1.9,10-3.54l-40.31-.1-.78,3.67Z"/><polygon class="cls-2" points="54.85 54.5 55.62 50.87 40.89 50.83 40.11 54.51 54.85 54.5"/><polygon class="cls-2" points="55.74 50.27 56.51 46.64 41.78 46.61 41.01 50.27 55.74 50.27"/><path class="cls-2" d="M56.64,46l.74-3.53h8.83c3.05,0,5.27,1.32,6.21,3.53H87.67c0-.25,0-.5,0-.75a18.13,18.13,0,0,0-.23-2.8l-44.79-.11L41.9,46Z"/><path class="cls-2" d="M79.43,63a18.36,18.36,0,0,0,2.51-2.42c.32-.36.63-.75.93-1.14L39.1,59.29,38.33,63Z"/><path class="cls-2" d="M83.36,58.73a23.48,23.48,0,0,0,2-3.56l-15.74,0a9.93,9.93,0,0,1-6.33,2.34H54.22l.5-2.37L40,55.06l-.78,3.67Z"/><polygon class="cls-2" points="354.74 45.99 355.34 43.15 340.67 43.11 340.06 45.99 354.74 45.99"/><polygon class="cls-2" points="352.94 54.45 353.54 51.61 338.88 51.57 338.26 54.45 352.94 54.45"/><polygon class="cls-2" points="352.04 58.68 352.64 55.83 337.98 55.8 337.37 58.68 352.04 58.68"/><path class="cls-2" d="M372.45,33.3A4,4,0,0,0,370,30.5l-39.22-.1a6.26,6.26,0,0,0-1.59,1,8.49,8.49,0,0,0-1.83,1.91Z"/><polygon class="cls-2" points="351.14 62.91 351.75 60.06 337.08 60.02 336.47 62.91 351.14 62.91"/><path class="cls-2" d="M369.4,41.27A8.56,8.56,0,0,0,371.47,39l-45.42-.11a4,4,0,0,0,1.81,2.91H368.7C368.93,41.61,369.16,41.45,369.4,41.27Z"/><path class="cls-2" d="M372.66,35.13c0-.14,0-.27,0-.4l-46-.11a7.11,7.11,0,0,0-.68,2.91h46.24A6.87,6.87,0,0,0,372.66,35.13Z"/><polygon class="cls-2" points="353.84 50.22 354.44 47.38 339.77 47.34 339.16 50.22 353.84 50.22"/><polygon class="cls-2" points="350.25 67.14 350.85 64.29 336.18 64.25 335.57 67.14 350.25 67.14"/><path class="cls-2" d="M342.85,92.52A7.92,7.92,0,0,0,344.27,91a10.85,10.85,0,0,0,.85-1.39l-13.85,0a5.82,5.82,0,0,0,1.12,2.9Z"/><path class="cls-2" d="M345.66,88.29c.22-.72.43-1.61.7-2.86l-14.68,0a15.79,15.79,0,0,0-.45,2.9Z"/><path class="cls-2" d="M340.62,93.87l-6.73,0a6.08,6.08,0,0,0,3.18.84A8.84,8.84,0,0,0,340.62,93.87Z"/><polygon class="cls-2" points="346.65 84.06 347.26 81.2 332.59 81.16 331.98 84.06 346.65 84.06"/><polygon class="cls-2" points="347.55 79.83 348.16 76.97 333.49 76.94 332.88 79.83 347.55 79.83"/><polygon class="cls-2" points="349.35 71.37 349.95 68.52 335.29 68.48 334.67 71.37 349.35 71.37"/><polygon class="cls-2" points="348.45 75.6 349.06 72.74 334.39 72.71 333.77 75.6 348.45 75.6"/><path class="cls-2" d="M139,63.77a31.83,31.83,0,0,1-1.17,3.41h15.89c.37-1.11.7-2.23,1-3.37Z"/><path class="cls-2" d="M156,51.12l-16.08,0a20.16,20.16,0,0,1,.32,3.41H156c0-.44,0-.88,0-1.32C156.08,52.47,156.05,51.79,156,51.12Z"/><path class="cls-2" d="M139.9,59.54a31.64,31.64,0,0,1-.68,3.41h15.7c.26-1.12.48-2.24.65-3.36Z"/><path class="cls-2" d="M140.24,55.31a32,32,0,0,1-.23,3.41h15.68c.15-1.12.26-2.24.32-3.36Z"/><path class="cls-2" d="M138.49,29.11a30.58,30.58,0,0,0-7.83-1,37.72,37.72,0,0,0-8.45,1Z"/><path class="cls-2" d="M138.48,46.84a13.63,13.63,0,0,1,1.29,3.42h16.17a27.71,27.71,0,0,0-.51-3.36Z"/><path class="cls-2" d="M134.13,42.6A10.22,10.22,0,0,1,138,46h17.26a26,26,0,0,0-1.1-3.37Z"/><path class="cls-2" d="M124.18,41.8a14.94,14.94,0,0,1,3.89-.53,14.61,14.61,0,0,1,4,.53h21.67a23.48,23.48,0,0,0-1.88-3.37l-47.46-.12c-.58.53-1.14,1.06-1.68,1.62s-1.11,1.24-1.64,1.88Z"/><path class="cls-2" d="M107,68.7c0-.27,0-.52,0-.78l-15.86,0c0,.88-.09,1.76-.09,2.64,0,.3,0,.59,0,.89h16.08A19.54,19.54,0,0,1,107,68.7Z"/><path class="cls-2" d="M137.5,68a29.75,29.75,0,0,1-1.76,3.42h16.38c.48-1.1.92-2.23,1.32-3.37Z"/><path class="cls-2" d="M143,84.92l-47.84-.11c.21.32.41.64.64,1A26.14,26.14,0,0,0,98,88.33h41A36.28,36.28,0,0,0,143,84.92Z"/><path class="cls-2" d="M135.25,72.22a29,29,0,0,1-2.6,3.42H150c.62-1.09,1.19-2.22,1.72-3.37Z"/><path class="cls-2" d="M147.29,79.86c.79-1.08,1.53-2.21,2.22-3.38l-17.62,0a21.48,21.48,0,0,1-4.33,3.43Z"/><path class="cls-2" d="M147.15,33.34a23.33,23.33,0,0,0-6.09-3.41l-21.73-.05a40.46,40.46,0,0,0-8,3.46Z"/><path class="cls-2" d="M143.76,84.09l.52-.53a36.92,36.92,0,0,0,2.39-2.86l-20.59,0a15.67,15.67,0,0,1-6.74,1.57,13,13,0,0,1-6.54-1.6l-19.94-.05a23.41,23.41,0,0,0,1.79,3.53Z"/><path class="cls-2" d="M111.67,79.87a10.8,10.8,0,0,1-3-3.49l-17.1,0a25.17,25.17,0,0,0,1,3.53Z"/><path class="cls-2" d="M107,67.18a33.28,33.28,0,0,1,.3-3.49l-15.72,0c-.19,1.18-.32,2.36-.42,3.53Z"/><path class="cls-2" d="M151.29,37.57a21.79,21.79,0,0,0-3.12-3.39L110,34.09a38.54,38.54,0,0,0-4.79,3.48Z"/><path class="cls-2" d="M129.11,93.35l-23.83-.06a29.5,29.5,0,0,0,11.47,2.07A38.81,38.81,0,0,0,129.11,93.35Z"/><path class="cls-2" d="M131.25,92.56a36.93,36.93,0,0,0,6.46-3.42l-39-.1a21.68,21.68,0,0,0,5,3.52Z"/><path class="cls-2" d="M108.33,75.64a14.67,14.67,0,0,1-1.06-3.49l-16.17,0a28,28,0,0,0,.39,3.53Z"/><path class="cls-2" d="M112.48,50.26l0-.07a24.89,24.89,0,0,1,3-3.4l-17.91,0c-.67,1.14-1.3,2.31-1.88,3.52Z"/><path class="cls-2" d="M116.4,46a21.11,21.11,0,0,1,5.52-3.46l-21.39,0A42.16,42.16,0,0,0,98.08,46Z"/><path class="cls-2" d="M107.45,63a33.27,33.27,0,0,1,.76-3.49l-15.74,0Q92,61.18,91.72,63Z"/><path class="cls-2" d="M108.4,58.72a30.9,30.9,0,0,1,1.3-3.49l-16,0c-.41,1.17-.77,2.34-1.09,3.54Z"/><path class="cls-2" d="M110,54.49A26.75,26.75,0,0,1,112,51L95.44,51c-.53,1.15-1,2.33-1.45,3.53Z"/><path class="cls-2" d="M321.53,33.31a4,4,0,0,0-2.75-2.94l-27.95-.07A9.38,9.38,0,0,0,286.62,33l-.27.29Z"/><path class="cls-2" d="M321.25,37.54a7.12,7.12,0,0,0,.48-2.51c0-.15,0-.28,0-.42l-36.27-.09a11.2,11.2,0,0,0-1.21,3Z"/><polygon class="cls-2" points="296.19 50.23 296.82 47.24 282.12 47.2 281.48 50.23 296.19 50.23"/><path class="cls-2" d="M310.76,84.06a4.12,4.12,0,0,0-3-3L275,81l-.43,2.06c-.08.37-.14.7-.2,1Z"/><path class="cls-2" d="M311,86c0-.21,0-.42,0-.62l-36.85-.09a10,10,0,0,0-.24,2.25,7,7,0,0,0,0,.8h36.63A6.86,6.86,0,0,0,311,86Z"/><path class="cls-2" d="M307.72,92.1a8.75,8.75,0,0,0,2.22-2.53l-35.78-.09A6.26,6.26,0,0,0,276,92.19a3.88,3.88,0,0,0,.38.34h30.77A6.52,6.52,0,0,0,307.72,92.1Z"/><path class="cls-2" d="M317.76,41.77c.23-.15.46-.32.7-.5a8.56,8.56,0,0,0,2.15-2.43l-36.69-.1c-.11.5-.24,1-.37,1.66l-.29,1.37Z"/><polygon class="cls-2" points="297.09 46 297.72 43.01 283.01 42.97 282.37 46 297.09 46"/><polygon class="cls-2" points="291.71 71.38 292.34 68.37 277.65 68.34 277.01 71.38 291.71 71.38"/><polygon class="cls-2" points="289.94 79.84 290.57 76.83 275.87 76.79 275.22 79.84 289.94 79.84"/><polygon class="cls-2" points="295.29 54.46 295.93 51.46 281.22 51.43 280.58 54.46 295.29 54.46"/><path class="cls-2" d="M283,93.73h0Z"/><polygon class="cls-2" points="290.83 75.61 291.46 72.6 276.76 72.56 276.12 75.61 290.83 75.61"/><path class="cls-2" d="M314.72,58.69a4,4,0,0,0-2.65-3l-31.74-.08-.64,3Z"/><path class="cls-2" d="M314.43,62.91a7,7,0,0,0,.49-2.46c0-.17,0-.32,0-.48l-35.46-.09-.64,3Z"/><path class="cls-2" d="M310.84,67.15a9.83,9.83,0,0,0,.81-.56,8.63,8.63,0,0,0,2.13-2.39l-35.24-.09-.64,3Z"/><path class="cls-2" d="M215.68,33.32a11.14,11.14,0,0,0-4.51-3.21l-23.41-.06a39,39,0,0,0-7.47,3.28Z"/><path class="cls-2" d="M208.19,29.1a32.79,32.79,0,0,0-8.28-1,39.73,39.73,0,0,0-8.64,1Z"/><path class="cls-2" d="M217,37.55c0-.2,0-.4,0-.6a5.6,5.6,0,0,0-.65-2.6l-37.58-.09a34.93,34.93,0,0,0-4.41,3.3Z"/><path class="cls-2" d="M202.8,42.77c.54.2,1.1.43,1.72.7,2.68,1.25,3.55,1.54,5,1.54a7.18,7.18,0,0,0,5.12-2.21Z"/><path class="cls-2" d="M185.75,46a17.67,17.67,0,0,1,5.77-3.27l-21.93-.06c-.81,1.06-1.57,2.18-2.29,3.33Z"/><path class="cls-2" d="M206.73,79.85A4.42,4.42,0,0,0,203,77.9a9.78,9.78,0,0,0-3.35.77l-2.85,1.19Z"/><path class="cls-2" d="M176,68.7c0-.21,0-.41,0-.61l-15.76,0c0,.79-.07,1.59-.07,2.37,0,.33,0,.66,0,1h16A19.39,19.39,0,0,1,176,68.7Z"/><path class="cls-2" d="M203.56,90.56A12.21,12.21,0,0,0,205,89.31l-37.2-.1c.36.34.73.67,1.1,1a20,20,0,0,0,3.74,2.37h27.45A18.57,18.57,0,0,0,203.56,90.56Z"/><path class="cls-2" d="M215.46,41.78a8.27,8.27,0,0,0,1.37-3.2l-43.49-.11c-.49.47-1,1-1.43,1.45s-1.09,1.23-1.61,1.87Z"/><path class="cls-2" d="M181.78,50.25c.16-.22.32-.44.48-.64A27.31,27.31,0,0,1,184.69,47l-17.93-.05c-.63,1.09-1.23,2.2-1.79,3.34Z"/><path class="cls-2" d="M205.91,88.31a8.12,8.12,0,0,0,1.55-3.23L164.37,85a23.11,23.11,0,0,0,2.57,3.34Z"/><path class="cls-2" d="M179.27,54.48a26.66,26.66,0,0,1,1.85-3.3l-16.55,0c-.5,1.09-1,2.21-1.39,3.34Z"/><path class="cls-2" d="M181.43,79.86a10.15,10.15,0,0,1-3.4-3.31l-17.13,0a29.28,29.28,0,0,0,1,3.35Z"/><path class="cls-2" d="M197.64,93.52l-22.86-.06A31.62,31.62,0,0,0,186,95.36,37.06,37.06,0,0,0,197.64,93.52Z"/><path class="cls-2" d="M207.63,84.08a8.72,8.72,0,0,0,.05-.9,6.2,6.2,0,0,0-.43-2.33l-12.92,0a13,13,0,0,1-5.64.82,15.45,15.45,0,0,1-5.29-.85l-21.18-.05a27.2,27.2,0,0,0,1.61,3.35Z"/><path class="cls-2" d="M177.63,58.71a31.76,31.76,0,0,1,1.23-3.31l-16,0c-.38,1.11-.73,2.23-1,3.35Z"/><path class="cls-2" d="M177.51,75.63a13.29,13.29,0,0,1-1.12-3.31l-16.11,0a27.19,27.19,0,0,0,.44,3.35Z"/><path class="cls-2" d="M176.58,62.94c.21-1.11.46-2.22.77-3.31l-15.75,0c-.28,1.11-.52,2.23-.72,3.35Z"/><path class="cls-2" d="M176.08,67.17a31.2,31.2,0,0,1,.34-3.31l-15.68,0c-.18,1.12-.31,2.24-.39,3.35Z"/><polygon class="cls-2" points="245.44 47.11 241.98 50.24 260.74 50.23 264.43 47.16 245.44 47.11"/><path class="cls-2" d="M269.47,42.94l-19.38,0L246.65,46h19.16l2.68-2.24Z"/><polygon class="cls-2" points="236.86 68.24 239.06 71.39 258.55 71.38 256.28 68.28 236.86 68.24"/><polygon class="cls-2" points="237.31 54.47 255.68 54.47 259.38 51.37 240.78 51.33 237.31 54.47"/><path class="cls-2" d="M273,30.26l-8.76,0a19.94,19.94,0,0,0-3.67,3.08h14A5.23,5.23,0,0,0,273,30.26Z"/><path class="cls-2" d="M259.41,34.45,256,37.55h18.14a7.93,7.93,0,0,0,.59-3Z"/><path class="cls-2" d="M273.5,38.72l-18.75,0-3.43,3.11h19.46A16,16,0,0,0,273.5,38.72Z"/><path class="cls-2" d="M266.84,89.46l-15.17,0,.32.47a18.78,18.78,0,0,0,2.11,2.4l.24.24h10.38A8.54,8.54,0,0,0,266.84,89.46Z"/><path class="cls-2" d="M236.94,29.09A6.28,6.28,0,0,0,235,28.8a8.77,8.77,0,0,0-2.21.29Z"/><path class="cls-2" d="M263.14,93.68l-7.58,0a5.06,5.06,0,0,0,3.63,1A8.19,8.19,0,0,0,263.14,93.68Z"/><path class="cls-2" d="M240.64,33.32a5.55,5.55,0,0,0-1.76-3.15l-8.59,0a7.64,7.64,0,0,0-2.46,2.29c-.23.32-.42.6-.59.88Z"/><path class="cls-2" d="M267.5,85.23l-18.8,0,2.18,3.12h16.34a9.65,9.65,0,0,0,.31-2.44Q267.53,85.55,267.5,85.23Z"/><polygon class="cls-2" points="242.78 76.71 244.97 79.85 264.72 79.84 262.47 76.76 242.78 76.71"/><path class="cls-2" d="M245.74,81l2.19,3.13h19.31A12.5,12.5,0,0,0,265.55,81Z"/><polygon class="cls-2" points="239.82 72.47 242.02 75.62 261.63 75.61 259.38 72.52 239.82 72.47"/><path class="cls-2" d="M266.87,29.09H271a6.13,6.13,0,0,0-1.85-.28A8.71,8.71,0,0,0,266.87,29.09Z"/><polygon class="cls-2" points="231.49 79.85 232.16 76.68 217.48 76.65 216.81 79.85 231.49 79.85"/><polygon class="cls-2" points="232.39 75.62 233.06 72.46 218.38 72.42 217.7 75.62 232.39 75.62"/><polygon class="cls-2" points="230.59 84.08 231.26 80.91 216.59 80.88 215.91 84.08 230.59 84.08"/><polygon class="cls-2" points="233.29 71.39 233.96 68.23 219.27 68.19 218.59 71.39 233.29 71.39"/><path class="cls-2" d="M225.16,93.59l-7.78,0a5.84,5.84,0,0,0,3.54,1.12A9.42,9.42,0,0,0,225.16,93.59Z"/><path class="cls-2" d="M226.76,92.54a7.89,7.89,0,0,0,1.45-1.5,12.54,12.54,0,0,0,.95-1.67l-14,0a5.87,5.87,0,0,0,1.15,3.21Z"/><path class="cls-2" d="M229.57,88.31c.25-.77.49-1.76.79-3.17l-14.66,0a21.82,21.82,0,0,0-.52,3.21Z"/><polygon class="cls-2" points="236.85 54.47 237.52 51.32 222.84 51.28 222.17 54.47 236.85 54.47"/><polygon class="cls-2" points="238.63 46.01 239.3 42.86 224.63 42.83 223.95 46.01 238.63 46.01"/><polygon class="cls-2" points="239.52 41.78 240.19 38.64 225.52 38.6 224.85 41.78 239.52 41.78"/><polygon class="cls-2" points="237.74 50.24 238.41 47.09 223.73 47.05 223.06 50.24 237.74 50.24"/><path class="cls-2" d="M240.44,37.55a12.51,12.51,0,0,0,.33-2.9,1.93,1.93,0,0,0,0-.24l-14.07,0a17.26,17.26,0,0,0-.94,3.18Z"/><polygon class="cls-2" points="252.37 62.93 250.09 59.81 221.06 59.74 220.38 62.93 252.37 62.93"/><polygon class="cls-2" points="250.62 58.7 254.34 55.59 221.95 55.51 221.27 58.7 250.62 58.7"/><polygon class="cls-2" points="234.19 67.16 234.63 65.05 236.11 67.16 255.46 67.16 253.19 64.05 220.16 63.97 219.49 67.16 234.19 67.16"/><polygon class="cls-3" points="55.62 67.78 57.77 71.42 75.05 71.42 72.55 67.82 55.62 67.78"/><polygon class="cls-3" points="58.12 72.02 60.26 75.65 77.99 75.65 75.5 72.06 58.12 72.02"/><path class="cls-3" d="M85.56,33.35C82.38,31,78,29.76,72.67,29.76H57.8a10.29,10.29,0,0,0-8,3.16l-.39.43Z"/><polygon class="cls-3" points="60.62 76.25 62.76 79.88 80.92 79.88 78.44 76.3 60.62 76.25"/><path class="cls-3" d="M76.24,46.68a7.17,7.17,0,0,1,.08,3.59H90.69a22.89,22.89,0,0,0,.53-3.55Z"/><path class="cls-3" d="M73.94,54.5H89.29A24,24,0,0,0,90.51,51l-14.37,0A8.79,8.79,0,0,1,73.94,54.5Z"/><path class="cls-3" d="M81.38,80.53l-18.26,0,2.13,3.62H83.49A15.42,15.42,0,0,0,81.69,81Z"/><path class="cls-3" d="M51.09,88.34A33.43,33.43,0,0,0,52,84.91l0-.22-14.67,0,0,.26a22.78,22.78,0,0,0-.56,3.43Z"/><path class="cls-3" d="M83.36,89,68.11,89l.72,1.22a16.14,16.14,0,0,0,1.68,2.39H80.74A9,9,0,0,0,83.36,89Z"/><path class="cls-3" d="M90.94,41.81a14.44,14.44,0,0,0-1.22-3.55L47.2,38.15c-.17.66-.34,1.4-.52,2.25l-.3,1.41Z"/><path class="cls-3" d="M79.88,93.22l-8.78,0a5.2,5.2,0,0,0,3.78,1.58A9.15,9.15,0,0,0,79.88,93.22Z"/><path class="cls-3" d="M83.7,84.77l-18.08,0,2.13,3.62H83.59a7.12,7.12,0,0,0,.3-2A6.2,6.2,0,0,0,83.7,84.77Z"/><path class="cls-3" d="M89.37,37.58a13.26,13.26,0,0,0-3-3.56l-37.5-.09a10.61,10.61,0,0,0-1.57,3.66Z"/><polygon class="cls-3" points="52.12 84.11 52.9 80.46 38.22 80.43 37.45 84.11 52.12 84.11"/><polygon class="cls-3" points="53.02 79.88 53.79 76.23 39.12 76.2 38.34 79.88 53.02 79.88"/><polygon class="cls-3" points="53.92 75.65 54.69 72.01 40.01 71.97 39.23 75.65 53.92 75.65"/><path class="cls-3" d="M48.26,92.57A8.28,8.28,0,0,0,49.75,91a10.61,10.61,0,0,0,1.13-2.12l-14.18,0a6,6,0,0,0,1.2,3.69Z"/><polygon class="cls-3" points="54.81 71.42 55.59 67.78 40.9 67.74 40.13 71.42 54.81 71.42"/><path class="cls-3" d="M47.47,93.14l-9.08,0a5.7,5.7,0,0,0,4.07,1.57A9.52,9.52,0,0,0,47.47,93.14Z"/><path class="cls-3" d="M72.11,67.19l0,0c4.57-.89,7.58-1.9,10-3.54l-40.31-.1L41,67.19Z"/><polygon class="cls-3" points="58.43 54.5 59.2 50.87 44.47 50.83 43.7 54.51 58.43 54.5"/><polygon class="cls-3" points="59.33 50.27 60.09 46.64 45.37 46.61 44.59 50.27 59.33 50.27"/><path class="cls-3" d="M60.22,46,61,42.51h8.82c3.06,0,5.27,1.32,6.21,3.53H91.26c0-.25,0-.5,0-.75a18.12,18.12,0,0,0-.24-2.8l-44.78-.11L45.49,46Z"/><path class="cls-3" d="M83,63a18.3,18.3,0,0,0,2.5-2.42c.32-.36.63-.75.93-1.14l-43.76-.11L41.91,63Z"/><path class="cls-3" d="M86.94,58.73a23.53,23.53,0,0,0,2-3.56l-15.74,0a9.93,9.93,0,0,1-6.33,2.34H57.8l.51-2.37-14.73,0-.77,3.67Z"/><polygon class="cls-3" points="358.32 45.99 358.92 43.15 344.26 43.11 343.65 45.99 358.32 45.99"/><polygon class="cls-3" points="356.52 54.45 357.13 51.61 342.46 51.57 341.85 54.45 356.52 54.45"/><polygon class="cls-3" points="355.63 58.68 356.23 55.83 341.56 55.8 340.95 58.68 355.63 58.68"/><path class="cls-3" d="M376,33.3a4,4,0,0,0-2.43-2.8l-39.22-.1a6.26,6.26,0,0,0-1.59,1A8.67,8.67,0,0,0,331,33.3Z"/><polygon class="cls-3" points="354.73 62.91 355.33 60.06 340.67 60.02 340.05 62.91 354.73 62.91"/><path class="cls-3" d="M373,41.27A8.77,8.77,0,0,0,375.06,39l-45.43-.11a4,4,0,0,0,1.81,2.91h40.84A8,8,0,0,0,373,41.27Z"/><path class="cls-3" d="M376.24,35.13c0-.14,0-.27,0-.4l-46-.11a7,7,0,0,0-.69,2.91h46.25A6.85,6.85,0,0,0,376.24,35.13Z"/><polygon class="cls-3" points="357.42 50.22 358.03 47.38 343.36 47.34 342.75 50.22 357.42 50.22"/><polygon class="cls-3" points="353.83 67.14 354.44 64.29 339.77 64.25 339.16 67.14 353.83 67.14"/><path class="cls-3" d="M346.44,92.52A8.19,8.19,0,0,0,347.85,91a9.94,9.94,0,0,0,.86-1.39l-13.85,0a5.73,5.73,0,0,0,1.12,2.9Z"/><path class="cls-3" d="M349.25,88.29c.22-.72.43-1.61.7-2.86l-14.68,0a14.22,14.22,0,0,0-.45,2.9Z"/><path class="cls-3" d="M344.21,93.87l-6.74,0a6.14,6.14,0,0,0,3.19.84A8.88,8.88,0,0,0,344.21,93.87Z"/><polygon class="cls-3" points="350.24 84.06 350.85 81.2 336.18 81.16 335.56 84.06 350.24 84.06"/><polygon class="cls-3" points="351.14 79.83 351.74 76.97 337.08 76.94 336.46 79.83 351.14 79.83"/><polygon class="cls-3" points="352.93 71.37 353.54 68.52 338.87 68.48 338.26 71.37 352.93 71.37"/><polygon class="cls-3" points="352.03 75.6 352.64 72.74 337.97 72.71 337.36 75.6 352.03 75.6"/><path class="cls-3" d="M142.59,63.77a34.16,34.16,0,0,1-1.16,3.41h15.89c.37-1.11.69-2.23,1-3.37Z"/><path class="cls-3" d="M159.59,51.12l-16.08,0a19.18,19.18,0,0,1,.32,3.41h15.8c0-.44,0-.88,0-1.32C159.66,52.47,159.63,51.79,159.59,51.12Z"/><path class="cls-3" d="M143.48,59.54a34.26,34.26,0,0,1-.67,3.41H158.5c.26-1.12.48-2.24.65-3.36Z"/><path class="cls-3" d="M143.83,55.31c0,1.15-.1,2.29-.23,3.41h15.67q.24-1.68.33-3.36Z"/><path class="cls-3" d="M142.07,29.11a30.51,30.51,0,0,0-7.82-1,37.81,37.81,0,0,0-8.46,1Z"/><path class="cls-3" d="M142.06,46.84a13.26,13.26,0,0,1,1.29,3.42h16.18a27.71,27.71,0,0,0-.52-3.36Z"/><path class="cls-3" d="M137.72,42.6A10.12,10.12,0,0,1,141.55,46h17.26a26,26,0,0,0-1.09-3.37Z"/><path class="cls-3" d="M127.77,41.8a14.88,14.88,0,0,1,3.89-.53,14.54,14.54,0,0,1,4,.53h21.68a22.6,22.6,0,0,0-1.89-3.37L108,38.3c-.58.53-1.15,1.06-1.68,1.62s-1.12,1.24-1.65,1.88Z"/><path class="cls-3" d="M110.56,68.7c0-.27,0-.52,0-.78l-15.86,0q-.09,1.32-.09,2.64c0,.3,0,.59,0,.89h16.08A21.26,21.26,0,0,1,110.56,68.7Z"/><path class="cls-3" d="M141.09,68a31.43,31.43,0,0,1-1.76,3.42H155.7c.49-1.1.92-2.23,1.32-3.37Z"/><path class="cls-3" d="M146.54,84.92,98.7,84.81c.21.32.41.64.64,1a24.85,24.85,0,0,0,2.2,2.56h40.94A35.49,35.49,0,0,0,146.54,84.92Z"/><path class="cls-3" d="M138.83,72.22a27,27,0,0,1-2.6,3.42h17.36c.61-1.09,1.19-2.22,1.72-3.37Z"/><path class="cls-3" d="M150.88,79.86c.78-1.08,1.52-2.21,2.22-3.38l-17.62,0a21.54,21.54,0,0,1-4.34,3.43Z"/><path class="cls-3" d="M150.73,33.34a23.27,23.27,0,0,0-6.08-3.41l-21.74-.05a40.72,40.72,0,0,0-8,3.46Z"/><path class="cls-3" d="M147.35,84.09l.52-.53c.83-.9,1.63-1.86,2.39-2.86l-20.6,0a15.63,15.63,0,0,1-6.73,1.57,13,13,0,0,1-6.54-1.6l-19.94-.05a23.35,23.35,0,0,0,1.78,3.53Z"/><path class="cls-3" d="M115.26,79.87a10.83,10.83,0,0,1-3-3.49l-17.09,0a23.89,23.89,0,0,0,1,3.53Z"/><path class="cls-3" d="M110.61,67.18c0-1.18.14-2.35.3-3.49l-15.72,0c-.18,1.18-.32,2.36-.41,3.53Z"/><path class="cls-3" d="M154.87,37.57a22.23,22.23,0,0,0-3.11-3.39l-38.13-.09a37.81,37.81,0,0,0-4.79,3.48Z"/><path class="cls-3" d="M132.69,93.35l-23.83-.06a29.55,29.55,0,0,0,11.48,2.07A38.75,38.75,0,0,0,132.69,93.35Z"/><path class="cls-3" d="M134.83,92.56a37,37,0,0,0,6.47-3.42L102.25,89a21.89,21.89,0,0,0,5,3.52Z"/><path class="cls-3" d="M111.92,75.64a14.67,14.67,0,0,1-1.06-3.49l-16.17,0a30,30,0,0,0,.38,3.53Z"/><path class="cls-3" d="M116.07,50.26l.05-.07a24.83,24.83,0,0,1,3-3.4l-17.9,0c-.68,1.14-1.31,2.31-1.89,3.52Z"/><path class="cls-3" d="M120,46a21.06,21.06,0,0,1,5.51-3.46l-21.38,0A39.9,39.9,0,0,0,101.67,46Z"/><path class="cls-3" d="M111,63c.2-1.19.46-2.35.77-3.49l-15.74,0q-.45,1.76-.75,3.54Z"/><path class="cls-3" d="M112,58.72a32.92,32.92,0,0,1,1.29-3.49l-16,0c-.4,1.17-.76,2.34-1.08,3.54Z"/><path class="cls-3" d="M113.61,54.49a26.75,26.75,0,0,1,2-3.48L99,51c-.53,1.15-1,2.33-1.46,3.53Z"/><path class="cls-3" d="M325.11,33.31a4,4,0,0,0-2.75-2.94l-27.95-.07a9.35,9.35,0,0,0-4.2,2.72,3.58,3.58,0,0,0-.27.29Z"/><path class="cls-3" d="M324.83,37.54a7.12,7.12,0,0,0,.48-2.51c0-.15,0-.28,0-.42L289,34.52a11.2,11.2,0,0,0-1.21,3Z"/><polygon class="cls-3" points="299.77 50.23 300.41 47.24 285.7 47.2 285.06 50.23 299.77 50.23"/><path class="cls-3" d="M314.34,84.06a4.12,4.12,0,0,0-3-3L278.56,81l-.44,2.06c-.07.37-.14.7-.2,1Z"/><path class="cls-3" d="M314.57,86c0-.21,0-.42,0-.62l-36.86-.09a10,10,0,0,0-.24,2.25,7,7,0,0,0,.05.8h36.63A6.86,6.86,0,0,0,314.57,86Z"/><path class="cls-3" d="M311.31,92.1a8.72,8.72,0,0,0,2.21-2.53l-35.78-.09a6.35,6.35,0,0,0,1.82,2.71,4,4,0,0,0,.39.34h30.76A5.46,5.46,0,0,0,311.31,92.1Z"/><path class="cls-3" d="M321.34,41.77c.24-.15.47-.32.71-.5a8.71,8.71,0,0,0,2.15-2.43l-36.69-.1c-.12.5-.24,1-.37,1.66l-.29,1.37Z"/><polygon class="cls-3" points="300.67 46 301.31 43.01 286.6 42.97 285.96 46 300.67 46"/><polygon class="cls-3" points="295.3 71.38 295.93 68.37 281.24 68.34 280.6 71.38 295.3 71.38"/><polygon class="cls-3" points="293.53 79.84 294.16 76.83 279.45 76.79 278.81 79.84 293.53 79.84"/><polygon class="cls-3" points="298.88 54.46 299.51 51.46 284.81 51.43 284.17 54.46 298.88 54.46"/><path class="cls-3" d="M286.63,93.73h0Z"/><polygon class="cls-3" points="294.42 75.61 295.05 72.6 280.35 72.56 279.7 75.61 294.42 75.61"/><path class="cls-3" d="M318.31,58.69a4,4,0,0,0-2.65-3l-31.74-.08-.64,3Z"/><path class="cls-3" d="M318,62.91a6.74,6.74,0,0,0,.49-2.46c0-.17,0-.32,0-.48L283,59.88l-.64,3Z"/><path class="cls-3" d="M314.43,67.15a9.83,9.83,0,0,0,.81-.56,8.79,8.79,0,0,0,2.13-2.39l-35.24-.09-.64,3Z"/><path class="cls-3" d="M219.27,33.32a11.21,11.21,0,0,0-4.51-3.21l-23.41-.06a39.37,39.37,0,0,0-7.48,3.28Z"/><path class="cls-3" d="M211.78,29.1a32.85,32.85,0,0,0-8.28-1,39.66,39.66,0,0,0-8.64,1Z"/><path class="cls-3" d="M220.54,37.55q0-.3,0-.6a5.6,5.6,0,0,0-.65-2.6l-37.58-.09a34.33,34.33,0,0,0-4.42,3.3Z"/><path class="cls-3" d="M206.39,42.77c.54.2,1.1.43,1.71.7,2.69,1.25,3.55,1.54,5,1.54a7.16,7.16,0,0,0,5.11-2.21Z"/><path class="cls-3" d="M189.33,46a17.82,17.82,0,0,1,5.78-3.27l-21.93-.06c-.81,1.06-1.57,2.18-2.29,3.33Z"/><path class="cls-3" d="M210.31,79.85a4.4,4.4,0,0,0-3.74-1.95,9.78,9.78,0,0,0-3.36.77l-2.84,1.19Z"/><path class="cls-3" d="M179.62,68.7c0-.21,0-.41,0-.61l-15.76,0c-.05.79-.08,1.59-.08,2.37,0,.33,0,.66,0,1h16A18,18,0,0,1,179.62,68.7Z"/><path class="cls-3" d="M207.14,90.56a12.21,12.21,0,0,0,1.47-1.25l-37.19-.1c.36.34.72.67,1.1,1a19.89,19.89,0,0,0,3.73,2.37h27.46A18.47,18.47,0,0,0,207.14,90.56Z"/><path class="cls-3" d="M219.05,41.78a8.11,8.11,0,0,0,1.36-3.2l-43.49-.11c-.49.47-1,1-1.43,1.45s-1.08,1.23-1.6,1.87Z"/><path class="cls-3" d="M185.36,50.25c.16-.22.32-.44.49-.64A26,26,0,0,1,188.27,47l-17.92-.05c-.64,1.09-1.24,2.2-1.79,3.34Z"/><path class="cls-3" d="M209.5,88.31a8.26,8.26,0,0,0,1.55-3.23L168,85a23.05,23.05,0,0,0,2.56,3.34Z"/><path class="cls-3" d="M182.86,54.48a26.66,26.66,0,0,1,1.85-3.3l-16.56,0c-.5,1.09-1,2.21-1.38,3.34Z"/><path class="cls-3" d="M185,79.86a10,10,0,0,1-3.4-3.31l-17.13,0a29.28,29.28,0,0,0,1,3.35Z"/><path class="cls-3" d="M201.22,93.52l-22.86-.06a31.65,31.65,0,0,0,11.23,1.9A37,37,0,0,0,201.22,93.52Z"/><path class="cls-3" d="M211.21,84.08a8.68,8.68,0,0,0,.06-.9,6.4,6.4,0,0,0-.43-2.33l-12.93,0a12.93,12.93,0,0,1-5.63.82,15.55,15.55,0,0,1-5.3-.85l-21.17-.05a25.83,25.83,0,0,0,1.61,3.35Z"/><path class="cls-3" d="M181.21,58.71a34.2,34.2,0,0,1,1.23-3.31l-16,0c-.39,1.11-.73,2.23-1,3.35Z"/><path class="cls-3" d="M181.1,75.63A13.3,13.3,0,0,1,180,72.32l-16.11,0a29.25,29.25,0,0,0,.44,3.35Z"/><path class="cls-3" d="M180.17,62.94c.2-1.11.46-2.22.76-3.31l-15.75,0c-.28,1.11-.51,2.23-.71,3.35Z"/><path class="cls-3" d="M179.66,67.17c.06-1.1.18-2.2.35-3.31l-15.69,0c-.17,1.12-.3,2.24-.39,3.35Z"/><polygon class="cls-3" points="249.02 47.11 245.57 50.24 264.33 50.23 268.01 47.16 249.02 47.11"/><path class="cls-3" d="M273.05,42.94l-19.37,0L250.24,46h19.15l2.69-2.24Z"/><polygon class="cls-3" points="240.45 68.24 242.65 71.39 262.13 71.38 259.87 68.28 240.45 68.24"/><polygon class="cls-3" points="240.9 54.47 259.27 54.47 262.97 51.37 244.37 51.33 240.9 54.47"/><path class="cls-3" d="M276.62,30.26l-8.77,0a20.25,20.25,0,0,0-3.66,3.08h14A5.28,5.28,0,0,0,276.62,30.26Z"/><path class="cls-3" d="M263,34.45l-3.41,3.1h18.14a7.93,7.93,0,0,0,.59-3Z"/><path class="cls-3" d="M277.09,38.72l-18.75,0-3.43,3.11h19.46A16.77,16.77,0,0,0,277.09,38.72Z"/><path class="cls-3" d="M270.43,89.46l-15.18,0,.33.47a18.78,18.78,0,0,0,2.11,2.4l.24.24h10.38A8.66,8.66,0,0,0,270.43,89.46Z"/><path class="cls-3" d="M240.53,29.09a6.34,6.34,0,0,0-1.93-.29,8.83,8.83,0,0,0-2.21.29Z"/><path class="cls-3" d="M266.72,93.68l-7.57,0a5.05,5.05,0,0,0,3.62,1A8.13,8.13,0,0,0,266.72,93.68Z"/><path class="cls-3" d="M244.23,33.32a5.57,5.57,0,0,0-1.77-3.15l-8.58,0a7.78,7.78,0,0,0-2.47,2.29c-.22.32-.41.6-.59.88Z"/><path class="cls-3" d="M271.08,85.23l-18.79,0,2.18,3.12H270.8a9.65,9.65,0,0,0,.32-2.44A4.44,4.44,0,0,0,271.08,85.23Z"/><polygon class="cls-3" points="246.37 76.71 248.56 79.85 268.31 79.84 266.06 76.76 246.37 76.71"/><path class="cls-3" d="M249.33,81l2.19,3.13h19.31a12.6,12.6,0,0,0-1.7-3.07Z"/><polygon class="cls-3" points="243.41 72.47 245.6 75.62 265.22 75.61 262.96 72.52 243.41 72.47"/><path class="cls-3" d="M270.46,29.09h4.14a6.23,6.23,0,0,0-1.85-.28A8.71,8.71,0,0,0,270.46,29.09Z"/><polygon class="cls-3" points="235.07 79.85 235.75 76.68 221.07 76.65 220.39 79.85 235.07 79.85"/><polygon class="cls-3" points="235.97 75.62 236.65 72.46 221.96 72.42 221.29 75.62 235.97 75.62"/><polygon class="cls-3" points="234.18 84.08 234.85 80.91 220.18 80.88 219.5 84.08 234.18 84.08"/><polygon class="cls-3" points="236.87 71.39 237.54 68.23 222.85 68.19 222.18 71.39 236.87 71.39"/><path class="cls-3" d="M228.74,93.59l-7.78,0a5.89,5.89,0,0,0,3.55,1.12A9.38,9.38,0,0,0,228.74,93.59Z"/><path class="cls-3" d="M230.35,92.54a7.54,7.54,0,0,0,1.44-1.5,11.52,11.52,0,0,0,1-1.67l-14,0a6,6,0,0,0,1.16,3.21Z"/><path class="cls-3" d="M233.15,88.31a32.28,32.28,0,0,0,.8-3.17l-14.67,0a23,23,0,0,0-.51,3.21Z"/><polygon class="cls-3" points="240.44 54.47 241.1 51.32 226.43 51.28 225.75 54.47 240.44 54.47"/><polygon class="cls-3" points="242.22 46.01 242.88 42.86 228.21 42.83 227.54 46.01 242.22 46.01"/><polygon class="cls-3" points="243.11 41.78 243.77 38.64 229.1 38.6 228.43 41.78 243.11 41.78"/><polygon class="cls-3" points="241.33 50.24 241.99 47.09 227.32 47.05 226.65 50.24 241.33 50.24"/><path class="cls-3" d="M244,37.55a12.51,12.51,0,0,0,.33-2.9c0-.08,0-.16,0-.24l-14.08,0a19,19,0,0,0-.94,3.18Z"/><polygon class="cls-3" points="255.95 62.93 253.68 59.81 224.64 59.74 223.97 62.93 255.95 62.93"/><polygon class="cls-3" points="254.21 58.7 257.92 55.59 225.53 55.51 224.86 58.7 254.21 58.7"/><polygon class="cls-3" points="237.77 67.16 238.22 65.05 239.69 67.16 259.04 67.16 256.77 64.05 223.75 63.97 223.07 67.16 237.77 67.16"/></g></g></svg>