<svg xmlns="http://www.w3.org/2000/svg" viewBox="0 0 398.44 120.96"><defs><style>.cls-2{fill:#f5f5f5}.cls-3{fill:#29386f}</style></defs><g id="Calque_2" data-name="Calque 2"><g id="Calque_5" data-name="Calque 5"><rect x="4" y="4" width="390.44" height="112.96" rx="29.45" style="fill:#78cecd;stroke:#28386e;stroke-miterlimit:10;stroke-width:8px"/><path class="cls-2" d="m52.04 67.78 2.14 3.64h17.28l-2.49-3.6-16.93-.04zM54.53 72.02l2.15 3.63H74.4l-2.49-3.59-17.38-.04zM82 33.35c-3.2-2.35-7.58-3.59-12.92-3.59H54.22a10.29 10.29 0 0 0-8.06 3.16l-.38.43ZM57.03 76.25l2.14 3.63h18.17l-2.49-3.58-17.82-.05zM72.65 46.68a6.9 6.9 0 0 1 .27 2 8 8 0 0 1-.18 1.62H87.1a22.89 22.89 0 0 0 .53-3.55ZM70.36 54.5h15.35a26.57 26.57 0 0 0 1.22-3.5H72.56a9 9 0 0 1-2.2 3.5ZM77.79 80.53H59.53l2.14 3.62h18.24A15.56 15.56 0 0 0 78.1 81ZM47.51 88.34a33.43 33.43 0 0 0 .86-3.43v-.22H33.71l-.06.26a24.16 24.16 0 0 0-.56 3.43ZM79.78 89H64.53l.72 1.22a16.93 16.93 0 0 0 1.67 2.39h10.23A9.08 9.08 0 0 0 79.78 89ZM87.35 41.81a13.66 13.66 0 0 0-1.22-3.55l-42.51-.11c-.17.66-.34 1.4-.53 2.25l-.3 1.41ZM76.29 93.22h-8.78a5.21 5.21 0 0 0 3.78 1.58 9.12 9.12 0 0 0 5-1.58ZM80.12 84.77 62 84.72l2.13 3.62H80a7.13 7.13 0 0 0 .31-2 6.2 6.2 0 0 0-.19-1.57ZM85.79 37.58a13.44 13.44 0 0 0-3-3.56l-37.51-.09a10.82 10.82 0 0 0-1.56 3.66ZM48.54 84.11l.77-3.65-14.67-.03-.78 3.68h14.68zM49.43 79.88l.78-3.65-14.68-.03-.78 3.68h14.68zM50.33 75.65l.77-3.64-14.68-.04-.77 3.68h14.68zM44.67 92.57A7.69 7.69 0 0 0 46.16 91a11.21 11.21 0 0 0 1.14-2.12H33.12a6 6 0 0 0 1.2 3.69ZM51.23 71.42l.77-3.64-14.68-.04-.78 3.68h14.69zM43.89 93.14H34.8a5.72 5.72 0 0 0 4.07 1.57 9.59 9.59 0 0 0 5.02-1.57ZM68.53 67.19c4.57-.89 7.58-1.9 10-3.54l-40.31-.1-.78 3.67ZM54.85 54.5l.77-3.63-14.73-.04-.78 3.68 14.74-.01zM55.74 50.27l.77-3.63-14.73-.03-.77 3.66h14.73zM56.64 46l.74-3.53h8.83c3.05 0 5.27 1.32 6.21 3.53h15.25v-.75a18.13 18.13 0 0 0-.23-2.8l-44.79-.11L41.9 46ZM79.43 63a18.36 18.36 0 0 0 2.51-2.42c.32-.36.63-.75.93-1.14l-43.77-.15-.77 3.71ZM83.36 58.73a23.48 23.48 0 0 0 2-3.56H69.62a9.93 9.93 0 0 1-6.33 2.34h-9.07l.5-2.37L40 55.06l-.78 3.67ZM354.74 45.99l.6-2.84-14.67-.04-.61 2.88h14.68zM352.94 54.45l.6-2.84-14.66-.04-.62 2.88h14.68zM352.04 58.68l.6-2.85-14.66-.03-.61 2.88h14.67zM372.45 33.3a4 4 0 0 0-2.45-2.8l-39.22-.1a6.26 6.26 0 0 0-1.59 1 8.49 8.49 0 0 0-1.83 1.91ZM351.14 62.91l.61-2.85-14.67-.04-.61 2.89h14.67zM369.4 41.27a8.56 8.56 0 0 0 2.07-2.27l-45.42-.11a4 4 0 0 0 1.81 2.91h40.84c.23-.19.46-.35.7-.53ZM372.66 35.13v-.4l-46-.11a7.11 7.11 0 0 0-.68 2.91h46.24a6.87 6.87 0 0 0 .44-2.4ZM353.84 50.22l.6-2.84-14.67-.04-.61 2.88h14.68zM350.25 67.14l.6-2.85-14.67-.04-.61 2.89h14.68zM342.85 92.52a7.92 7.92 0 0 0 1.42-1.52 10.85 10.85 0 0 0 .85-1.39h-13.85a5.82 5.82 0 0 0 1.12 2.9ZM345.66 88.29c.22-.72.43-1.61.7-2.86h-14.68a15.79 15.79 0 0 0-.45 2.9ZM340.62 93.87h-6.73a6.08 6.08 0 0 0 3.18.84 8.84 8.84 0 0 0 3.55-.84ZM346.65 84.06l.61-2.86-14.67-.04-.61 2.9h14.67zM347.55 79.83l.61-2.86-14.67-.03-.61 2.89h14.67zM349.35 71.37l.6-2.85-14.66-.04-.62 2.89h14.68zM348.45 75.6l.61-2.86-14.67-.03-.62 2.89h14.68zM139 63.77a31.83 31.83 0 0 1-1.17 3.41h15.89c.37-1.11.7-2.23 1-3.37ZM156 51.12h-16.08a20.16 20.16 0 0 1 .32 3.41H156v-1.32c.08-.74.05-1.42 0-2.09ZM139.9 59.54a31.64 31.64 0 0 1-.68 3.41h15.7c.26-1.12.48-2.24.65-3.36ZM140.24 55.31a32 32 0 0 1-.23 3.41h15.68c.15-1.12.26-2.24.32-3.36ZM138.49 29.11a30.58 30.58 0 0 0-7.83-1 37.72 37.72 0 0 0-8.45 1ZM138.48 46.84a13.63 13.63 0 0 1 1.29 3.42h16.17a27.71 27.71 0 0 0-.51-3.36ZM134.13 42.6A10.22 10.22 0 0 1 138 46h17.26a26 26 0 0 0-1.1-3.37ZM124.18 41.8a14.94 14.94 0 0 1 3.89-.53 14.61 14.61 0 0 1 4 .53h21.67a23.48 23.48 0 0 0-1.88-3.37l-47.46-.12c-.58.53-1.14 1.06-1.68 1.62s-1.11 1.24-1.64 1.88ZM107 68.7v-.78H91.14c0 .88-.09 1.76-.09 2.64v.89h16.08a19.54 19.54 0 0 1-.13-2.75ZM137.5 68a29.75 29.75 0 0 1-1.76 3.42h16.38c.48-1.1.92-2.23 1.32-3.37ZM143 84.92l-47.84-.11c.21.32.41.64.64 1a26.14 26.14 0 0 0 2.2 2.52h41a36.28 36.28 0 0 0 4-3.41ZM135.25 72.22a29 29 0 0 1-2.6 3.42H150c.62-1.09 1.19-2.22 1.72-3.37ZM147.29 79.86c.79-1.08 1.53-2.21 2.22-3.38h-17.62a21.48 21.48 0 0 1-4.33 3.43ZM147.15 33.34a23.33 23.33 0 0 0-6.09-3.41l-21.73-.05a40.46 40.46 0 0 0-8 3.46ZM143.76 84.09l.52-.53a36.92 36.92 0 0 0 2.39-2.86h-20.59a15.67 15.67 0 0 1-6.74 1.57 13 13 0 0 1-6.54-1.6l-19.94-.05a23.41 23.41 0 0 0 1.79 3.53ZM111.67 79.87a10.8 10.8 0 0 1-3-3.49h-17.1a25.17 25.17 0 0 0 1 3.53ZM107 67.18a33.28 33.28 0 0 1 .3-3.49H91.58c-.19 1.18-.32 2.36-.42 3.53ZM151.29 37.57a21.79 21.79 0 0 0-3.12-3.39L110 34.09a38.54 38.54 0 0 0-4.79 3.48ZM129.11 93.35l-23.83-.06a29.5 29.5 0 0 0 11.47 2.07 38.81 38.81 0 0 0 12.36-2.01ZM131.25 92.56a36.93 36.93 0 0 0 6.46-3.42l-39-.1a21.68 21.68 0 0 0 5 3.52ZM108.33 75.64a14.67 14.67 0 0 1-1.06-3.49H91.1a28 28 0 0 0 .39 3.53ZM112.48 50.26v-.07a24.89 24.89 0 0 1 3-3.4H97.57c-.67 1.14-1.3 2.31-1.88 3.52ZM116.4 46a21.11 21.11 0 0 1 5.52-3.46h-21.39A42.16 42.16 0 0 0 98.08 46ZM107.45 63a33.27 33.27 0 0 1 .76-3.49H92.47Q92 61.18 91.72 63ZM108.4 58.72a30.9 30.9 0 0 1 1.3-3.49h-16c-.41 1.17-.77 2.34-1.09 3.54ZM110 54.49a26.75 26.75 0 0 1 2-3.49H95.44c-.53 1.15-1 2.33-1.45 3.53ZM321.53 33.31a4 4 0 0 0-2.75-2.94l-27.95-.07a9.38 9.38 0 0 0-4.21 2.7l-.27.29ZM321.25 37.54a7.12 7.12 0 0 0 .48-2.51v-.42l-36.27-.09a11.2 11.2 0 0 0-1.21 3ZM296.19 50.23l.63-2.99-14.7-.04-.64 3.03h14.71zM310.76 84.06a4.12 4.12 0 0 0-3-3L275 81l-.43 2.06c-.08.37-.14.7-.2 1ZM311 86v-.62l-36.85-.09a10 10 0 0 0-.24 2.25 7 7 0 0 0 0 .8h36.63A6.86 6.86 0 0 0 311 86ZM307.72 92.1a8.75 8.75 0 0 0 2.22-2.53l-35.78-.09a6.26 6.26 0 0 0 1.84 2.71 3.88 3.88 0 0 0 .38.34h30.77a6.52 6.52 0 0 0 .57-.43ZM317.76 41.77c.23-.15.46-.32.7-.5a8.56 8.56 0 0 0 2.15-2.43l-36.69-.1c-.11.5-.24 1-.37 1.66l-.29 1.37ZM297.09 46l.63-2.99-14.71-.04-.64 3.03h14.72zM291.71 71.38l.63-3.01-14.69-.03-.64 3.04h14.7zM289.94 79.84l.63-3.01-14.7-.04-.65 3.05h14.72zM295.29 54.46l.64-3-14.71-.03-.64 3.03h14.71zM283 93.73ZM290.83 75.61l.63-3.01-14.7-.04-.64 3.05h14.71zM314.72 58.69a4 4 0 0 0-2.65-3l-31.74-.08-.64 3ZM314.43 62.91a7 7 0 0 0 .49-2.46v-.48l-35.46-.09-.64 3ZM310.84 67.15a9.83 9.83 0 0 0 .81-.56 8.63 8.63 0 0 0 2.13-2.39l-35.24-.09-.64 3ZM215.68 33.32a11.14 11.14 0 0 0-4.51-3.21l-23.41-.06a39 39 0 0 0-7.47 3.28ZM208.19 29.1a32.79 32.79 0 0 0-8.28-1 39.73 39.73 0 0 0-8.64 1ZM217 37.55v-.6a5.6 5.6 0 0 0-.65-2.6l-37.58-.09a34.93 34.93 0 0 0-4.41 3.3ZM202.8 42.77c.54.2 1.1.43 1.72.7 2.68 1.25 3.55 1.54 5 1.54a7.18 7.18 0 0 0 5.12-2.21ZM185.75 46a17.67 17.67 0 0 1 5.77-3.27l-21.93-.06c-.81 1.06-1.57 2.18-2.29 3.33ZM206.73 79.85A4.42 4.42 0 0 0 203 77.9a9.78 9.78 0 0 0-3.35.77l-2.85 1.19ZM176 68.7v-.61h-15.76c0 .79-.07 1.59-.07 2.37v1h16a19.39 19.39 0 0 1-.17-2.76ZM203.56 90.56a12.21 12.21 0 0 0 1.44-1.25l-37.2-.1c.36.34.73.67 1.1 1a20 20 0 0 0 3.74 2.37h27.45a18.57 18.57 0 0 0 3.47-2.02ZM215.46 41.78a8.27 8.27 0 0 0 1.37-3.2l-43.49-.11c-.49.47-1 1-1.43 1.45s-1.09 1.23-1.61 1.87ZM181.78 50.25c.16-.22.32-.44.48-.64a27.31 27.31 0 0 1 2.43-2.61l-17.93-.05a56.12 56.12 0 0 0-1.79 3.34ZM205.91 88.31a8.12 8.12 0 0 0 1.55-3.23L164.37 85a23.11 23.11 0 0 0 2.57 3.34ZM179.27 54.48a26.66 26.66 0 0 1 1.85-3.3h-16.55c-.5 1.09-1 2.21-1.39 3.34ZM181.43 79.86a10.15 10.15 0 0 1-3.4-3.31H160.9a29.28 29.28 0 0 0 1 3.35ZM197.64 93.52l-22.86-.06a31.62 31.62 0 0 0 11.22 1.9 37.06 37.06 0 0 0 11.64-1.84ZM207.63 84.08a8.72 8.72 0 0 0 .05-.9 6.2 6.2 0 0 0-.43-2.33h-12.92a13 13 0 0 1-5.64.82 15.45 15.45 0 0 1-5.29-.85l-21.18-.05a27.2 27.2 0 0 0 1.61 3.35ZM177.63 58.71a31.76 31.76 0 0 1 1.23-3.31h-16c-.38 1.11-.73 2.23-1 3.35ZM177.51 75.63a13.29 13.29 0 0 1-1.12-3.31h-16.11a27.19 27.19 0 0 0 .44 3.35ZM176.58 62.94c.21-1.11.46-2.22.77-3.31H161.6c-.28 1.11-.52 2.23-.72 3.35ZM176.08 67.17a31.2 31.2 0 0 1 .34-3.31h-15.68c-.18 1.12-.31 2.24-.39 3.35ZM245.44 47.11l-3.46 3.13 18.76-.01 3.69-3.07-18.99-.05zM269.47 42.94h-19.38L246.65 46h19.16l2.68-2.24ZM236.86 68.24l2.2 3.15 19.49-.01-2.27-3.1-19.42-.04zM237.31 54.47h18.37l3.7-3.1-18.6-.04-3.47 3.14zM273 30.26h-8.76a19.94 19.94 0 0 0-3.67 3.08h14a5.23 5.23 0 0 0-1.57-3.08ZM259.41 34.45l-3.41 3.1h18.14a7.93 7.93 0 0 0 .59-3ZM273.5 38.72h-18.75l-3.43 3.11h19.46a16 16 0 0 0 2.72-3.11ZM266.84 89.46h-15.17l.32.47a18.78 18.78 0 0 0 2.11 2.4l.24.24h10.38a8.54 8.54 0 0 0 2.12-3.11ZM236.94 29.09a6.28 6.28 0 0 0-1.94-.29 8.77 8.77 0 0 0-2.21.29ZM263.14 93.68h-7.58a5.06 5.06 0 0 0 3.63 1 8.19 8.19 0 0 0 3.95-1ZM240.64 33.32a5.55 5.55 0 0 0-1.76-3.15h-8.59a7.64 7.64 0 0 0-2.46 2.29c-.23.32-.42.6-.59.88ZM267.5 85.23h-18.8l2.18 3.12h16.34a9.65 9.65 0 0 0 .31-2.44q0-.36-.03-.68ZM242.78 76.71l2.19 3.14 19.75-.01-2.25-3.08-19.69-.05zM245.74 81l2.19 3.13h19.31a12.5 12.5 0 0 0-1.69-3.13ZM239.82 72.47l2.2 3.15 19.61-.01-2.25-3.09-19.56-.05zM266.87 29.09H271a6.13 6.13 0 0 0-1.85-.28 8.71 8.71 0 0 0-2.28.28ZM231.49 79.85l.67-3.17-14.68-.03-.67 3.2h14.68zM232.39 75.62l.67-3.16-14.68-.04-.68 3.2h14.69zM230.59 84.08l.67-3.17-14.67-.03-.68 3.2h14.68zM233.29 71.39l.67-3.16-14.69-.04-.68 3.2h14.7zM225.16 93.59h-7.78a5.84 5.84 0 0 0 3.54 1.12 9.42 9.42 0 0 0 4.24-1.12ZM226.76 92.54a7.89 7.89 0 0 0 1.45-1.5 12.54 12.54 0 0 0 .95-1.67h-14a5.87 5.87 0 0 0 1.15 3.21ZM229.57 88.31c.25-.77.49-1.76.79-3.17H215.7a21.82 21.82 0 0 0-.52 3.21ZM236.85 54.47l.67-3.15-14.68-.04-.67 3.19h14.68zM238.63 46.01l.67-3.15-14.67-.03-.68 3.18h14.68zM239.52 41.78l.67-3.14-14.67-.04-.67 3.18h14.67zM237.74 50.24l.67-3.15-14.68-.04-.67 3.19h14.68zM240.44 37.55a12.51 12.51 0 0 0 .33-2.9 1.93 1.93 0 0 0 0-.24H226.7a17.26 17.26 0 0 0-.94 3.18ZM252.37 62.93l-2.28-3.12-29.03-.07-.68 3.19h31.99zM250.62 58.7l3.72-3.11-32.39-.08-.68 3.19h29.35zM234.19 67.16l.44-2.11 1.48 2.11h19.35l-2.27-3.11-33.03-.08-.67 3.19h14.7z"/><path class="cls-3" d="m55.62 67.78 2.15 3.64h17.28l-2.5-3.6-16.93-.04zM58.12 72.02l2.14 3.63h17.73l-2.49-3.59-17.38-.04zM85.56 33.35C82.38 31 78 29.76 72.67 29.76H57.8a10.29 10.29 0 0 0-8 3.16l-.39.43ZM60.62 76.25l2.14 3.63h18.16l-2.48-3.58-17.82-.05zM76.24 46.68a7.17 7.17 0 0 1 .08 3.59h14.37a22.89 22.89 0 0 0 .53-3.55ZM73.94 54.5h15.35a24 24 0 0 0 1.22-3.5H76.14a8.79 8.79 0 0 1-2.2 3.5ZM81.38 80.53H63.12l2.13 3.62h18.24a15.42 15.42 0 0 0-1.8-3.15ZM51.09 88.34a33.43 33.43 0 0 0 .91-3.43v-.22H37.33v.26a22.78 22.78 0 0 0-.56 3.43ZM83.36 89H68.11l.72 1.22a16.14 16.14 0 0 0 1.68 2.39h10.23A9 9 0 0 0 83.36 89ZM90.94 41.81a14.44 14.44 0 0 0-1.22-3.55l-42.52-.11c-.17.66-.34 1.4-.52 2.25l-.3 1.41ZM79.88 93.22H71.1a5.2 5.2 0 0 0 3.78 1.58 9.15 9.15 0 0 0 5-1.58ZM83.7 84.77H65.62l2.13 3.62h15.84a7.12 7.12 0 0 0 .3-2 6.2 6.2 0 0 0-.19-1.62ZM89.37 37.58a13.26 13.26 0 0 0-3-3.56l-37.5-.09a10.61 10.61 0 0 0-1.57 3.66ZM52.12 84.11l.78-3.65-14.68-.03-.77 3.68h14.67zM53.02 79.88l.77-3.65-14.67-.03-.78 3.68h14.68zM53.92 75.65l.77-3.64-14.68-.04-.78 3.68h14.69zM48.26 92.57A8.28 8.28 0 0 0 49.75 91a10.61 10.61 0 0 0 1.13-2.12H36.7a6 6 0 0 0 1.2 3.69ZM54.81 71.42l.78-3.64-14.69-.04-.77 3.68h14.68zM47.47 93.14h-9.08a5.7 5.7 0 0 0 4.07 1.57 9.52 9.52 0 0 0 5.01-1.57ZM72.11 67.19c4.57-.89 7.58-1.9 10-3.54l-40.31-.1-.8 3.64ZM58.43 54.5l.77-3.63-14.73-.04-.77 3.68 14.73-.01zM59.33 50.27l.76-3.63-14.72-.03-.78 3.66h14.74zM60.22 46l.78-3.49h8.82c3.06 0 5.27 1.32 6.21 3.53h15.23v-.75a18.12 18.12 0 0 0-.24-2.8l-44.78-.11-.75 3.62ZM83 63a18.3 18.3 0 0 0 2.5-2.42c.32-.36.63-.75.93-1.14l-43.76-.11-.76 3.67ZM86.94 58.73a23.53 23.53 0 0 0 2-3.56H73.2a9.93 9.93 0 0 1-6.33 2.34H57.8l.51-2.37H43.58l-.77 3.67ZM358.32 45.99l.6-2.84-14.66-.04-.61 2.88h14.67zM356.52 54.45l.61-2.84-14.67-.04-.61 2.88h14.67zM355.63 58.68l.6-2.85-14.67-.03-.61 2.88h14.68zM376 33.3a4 4 0 0 0-2.43-2.8l-39.22-.1a6.26 6.26 0 0 0-1.59 1 8.67 8.67 0 0 0-1.76 1.9ZM354.73 62.91l.6-2.85-14.66-.04-.62 2.89h14.68zM373 41.27a8.77 8.77 0 0 0 2.06-2.27l-45.43-.11a4 4 0 0 0 1.81 2.91h40.84a8 8 0 0 0 .72-.53ZM376.24 35.13v-.4l-46-.11a7 7 0 0 0-.69 2.91h46.25a6.85 6.85 0 0 0 .44-2.4ZM357.42 50.22l.61-2.84-14.67-.04-.61 2.88h14.67zM353.83 67.14l.61-2.85-14.67-.04-.61 2.89h14.67zM346.44 92.52a8.19 8.19 0 0 0 1.41-1.52 9.94 9.94 0 0 0 .86-1.39h-13.85a5.73 5.73 0 0 0 1.12 2.9ZM349.25 88.29c.22-.72.43-1.61.7-2.86h-14.68a14.22 14.22 0 0 0-.45 2.9ZM344.21 93.87h-6.74a6.14 6.14 0 0 0 3.19.84 8.88 8.88 0 0 0 3.55-.84ZM350.24 84.06l.61-2.86-14.67-.04-.62 2.9h14.68zM351.14 79.83l.6-2.86-14.66-.03-.62 2.89h14.68zM352.93 71.37l.61-2.85-14.67-.04-.61 2.89h14.67zM352.03 75.6l.61-2.86-14.67-.03-.61 2.89h14.67zM142.59 63.77a34.16 34.16 0 0 1-1.16 3.41h15.89c.37-1.11.69-2.23 1-3.37ZM159.59 51.12h-16.08a19.18 19.18 0 0 1 .32 3.41h15.8v-1.32c.03-.74 0-1.42-.04-2.09ZM143.48 59.54a34.26 34.26 0 0 1-.67 3.41h15.69c.26-1.12.48-2.24.65-3.36ZM143.83 55.31c0 1.15-.1 2.29-.23 3.41h15.67q.24-1.68.33-3.36ZM142.07 29.11a30.51 30.51 0 0 0-7.82-1 37.81 37.81 0 0 0-8.46 1ZM142.06 46.84a13.26 13.26 0 0 1 1.29 3.42h16.18a27.71 27.71 0 0 0-.52-3.36ZM137.72 42.6a10.12 10.12 0 0 1 3.83 3.4h17.26a26 26 0 0 0-1.09-3.37ZM127.77 41.8a14.88 14.88 0 0 1 3.89-.53 14.54 14.54 0 0 1 4 .53h21.68a22.6 22.6 0 0 0-1.89-3.37L108 38.3c-.58.53-1.15 1.06-1.68 1.62s-1.12 1.24-1.65 1.88ZM110.56 68.7v-.78H94.7q-.09 1.32-.09 2.64v.89h16.08a21.26 21.26 0 0 1-.13-2.75ZM141.09 68a31.43 31.43 0 0 1-1.76 3.42h16.37c.49-1.1.92-2.23 1.32-3.37ZM146.54 84.92l-47.84-.11c.21.32.41.64.64 1a24.85 24.85 0 0 0 2.2 2.56h40.94a35.49 35.49 0 0 0 4.06-3.45ZM138.83 72.22a27 27 0 0 1-2.6 3.42h17.36c.61-1.09 1.19-2.22 1.72-3.37ZM150.88 79.86a46.9 46.9 0 0 0 2.22-3.38h-17.62a21.54 21.54 0 0 1-4.34 3.43ZM150.73 33.34a23.27 23.27 0 0 0-6.08-3.41l-21.74-.05a40.72 40.72 0 0 0-8 3.46ZM147.35 84.09l.52-.53c.83-.9 1.63-1.86 2.39-2.86h-20.6a15.63 15.63 0 0 1-6.73 1.57 13 13 0 0 1-6.54-1.6l-19.94-.05a23.35 23.35 0 0 0 1.78 3.53ZM115.26 79.87a10.83 10.83 0 0 1-3-3.49H95.17a23.89 23.89 0 0 0 1 3.53ZM110.61 67.18c0-1.18.14-2.35.3-3.49H95.19a47.72 47.72 0 0 0-.41 3.53ZM154.87 37.57a22.23 22.23 0 0 0-3.11-3.39l-38.13-.09a37.81 37.81 0 0 0-4.79 3.48ZM132.69 93.35l-23.83-.06a29.55 29.55 0 0 0 11.48 2.07 38.75 38.75 0 0 0 12.35-2.01ZM134.83 92.56a37 37 0 0 0 6.47-3.42L102.25 89a21.89 21.89 0 0 0 5 3.52ZM111.92 75.64a14.67 14.67 0 0 1-1.06-3.49H94.69a30 30 0 0 0 .38 3.53ZM116.07 50.26l.05-.07a24.83 24.83 0 0 1 3-3.4h-17.9c-.68 1.14-1.31 2.31-1.89 3.52ZM120 46a21.06 21.06 0 0 1 5.51-3.46h-21.38a39.9 39.9 0 0 0-2.46 3.46ZM111 63c.2-1.19.46-2.35.77-3.49H96.03q-.45 1.76-.75 3.54ZM112 58.72a32.92 32.92 0 0 1 1.29-3.49h-16c-.4 1.17-.76 2.34-1.08 3.54ZM113.61 54.49a26.75 26.75 0 0 1 2-3.48L99 51c-.53 1.15-1 2.33-1.46 3.53ZM325.11 33.31a4 4 0 0 0-2.75-2.94l-27.95-.07a9.35 9.35 0 0 0-4.2 2.72 3.58 3.58 0 0 0-.27.29ZM324.83 37.54a7.12 7.12 0 0 0 .48-2.51v-.42L289 34.52a11.2 11.2 0 0 0-1.21 3ZM299.77 50.23l.64-2.99-14.71-.04-.64 3.03h14.71zM314.34 84.06a4.12 4.12 0 0 0-3-3L278.56 81l-.44 2.06c-.07.37-.14.7-.2 1ZM314.57 86v-.62l-36.86-.09a10 10 0 0 0-.24 2.25 7 7 0 0 0 .05.8h36.63a6.86 6.86 0 0 0 .42-2.34ZM311.31 92.1a8.72 8.72 0 0 0 2.21-2.53l-35.78-.09a6.35 6.35 0 0 0 1.82 2.71 4 4 0 0 0 .39.34h30.76a5.46 5.46 0 0 0 .6-.43ZM321.34 41.77c.24-.15.47-.32.71-.5a8.71 8.71 0 0 0 2.15-2.43l-36.69-.1c-.12.5-.24 1-.37 1.66l-.29 1.37ZM300.67 46l.64-2.99-14.71-.04-.64 3.03h14.71zM295.3 71.38l.63-3.01-14.69-.03-.64 3.04h14.7zM293.53 79.84l.63-3.01-14.71-.04-.64 3.05h14.72zM298.88 54.46l.63-3-14.7-.03-.64 3.03h14.71zM286.63 93.73ZM294.42 75.61l.63-3.01-14.7-.04-.65 3.05h14.72zM318.31 58.69a4 4 0 0 0-2.65-3l-31.74-.08-.64 3ZM318 62.91a6.74 6.74 0 0 0 .49-2.46v-.48L283 59.88l-.64 3ZM314.43 67.15a9.83 9.83 0 0 0 .81-.56 8.79 8.79 0 0 0 2.13-2.39l-35.24-.09-.64 3ZM219.27 33.32a11.21 11.21 0 0 0-4.51-3.21l-23.41-.06a39.37 39.37 0 0 0-7.48 3.28ZM211.78 29.1a32.85 32.85 0 0 0-8.28-1 39.66 39.66 0 0 0-8.64 1ZM220.54 37.55v-.6a5.6 5.6 0 0 0-.65-2.6l-37.58-.09a34.33 34.33 0 0 0-4.42 3.3ZM206.39 42.77c.54.2 1.1.43 1.71.7 2.69 1.25 3.55 1.54 5 1.54a7.16 7.16 0 0 0 5.11-2.21ZM189.33 46a17.82 17.82 0 0 1 5.78-3.27l-21.93-.06c-.81 1.06-1.57 2.18-2.29 3.33ZM210.31 79.85a4.4 4.4 0 0 0-3.74-1.95 9.78 9.78 0 0 0-3.36.77l-2.84 1.19ZM179.62 68.7v-.61h-15.76c-.05.79-.08 1.59-.08 2.37v1h16a18 18 0 0 1-.16-2.76ZM207.14 90.56a12.21 12.21 0 0 0 1.47-1.25l-37.19-.1c.36.34.72.67 1.1 1a19.89 19.89 0 0 0 3.73 2.37h27.46a18.47 18.47 0 0 0 3.43-2.02ZM219.05 41.78a8.11 8.11 0 0 0 1.36-3.2l-43.49-.11c-.49.47-1 1-1.43 1.45s-1.08 1.23-1.6 1.87ZM185.36 50.25c.16-.22.32-.44.49-.64a26 26 0 0 1 2.42-2.61l-17.92-.05c-.64 1.09-1.24 2.2-1.79 3.34ZM209.5 88.31a8.26 8.26 0 0 0 1.55-3.23L168 85a23.05 23.05 0 0 0 2.56 3.34ZM182.86 54.48a26.66 26.66 0 0 1 1.85-3.3h-16.56c-.5 1.09-1 2.21-1.38 3.34ZM185 79.86a10 10 0 0 1-3.4-3.31h-17.13a29.28 29.28 0 0 0 1 3.35ZM201.22 93.52l-22.86-.06a31.65 31.65 0 0 0 11.23 1.9 37 37 0 0 0 11.63-1.84ZM211.21 84.08a8.68 8.68 0 0 0 .06-.9 6.4 6.4 0 0 0-.43-2.33h-12.93a12.93 12.93 0 0 1-5.63.82 15.55 15.55 0 0 1-5.3-.85l-21.17-.05a25.83 25.83 0 0 0 1.61 3.35ZM181.21 58.71a34.2 34.2 0 0 1 1.23-3.31h-16c-.39 1.11-.73 2.23-1 3.35ZM181.1 75.63a13.3 13.3 0 0 1-1.1-3.31h-16.11a29.25 29.25 0 0 0 .44 3.35ZM180.17 62.94c.2-1.11.46-2.22.76-3.31h-15.75c-.28 1.11-.51 2.23-.71 3.35ZM179.66 67.17c.06-1.1.18-2.2.35-3.31h-15.69c-.17 1.12-.3 2.24-.39 3.35ZM249.02 47.11l-3.45 3.13 18.76-.01 3.68-3.07-18.99-.05zM273.05 42.94h-19.37L250.24 46h19.15l2.69-2.24ZM240.45 68.24l2.2 3.15 19.48-.01-2.26-3.1-19.42-.04zM240.9 54.47h18.37l3.7-3.1-18.6-.04-3.47 3.14zM276.62 30.26h-8.77a20.25 20.25 0 0 0-3.66 3.08h14a5.28 5.28 0 0 0-1.57-3.08ZM263 34.45l-3.41 3.1h18.14a7.93 7.93 0 0 0 .59-3ZM277.09 38.72h-18.75l-3.43 3.11h19.46a16.77 16.77 0 0 0 2.72-3.11ZM270.43 89.46h-15.18l.33.47a18.78 18.78 0 0 0 2.11 2.4l.24.24h10.38a8.66 8.66 0 0 0 2.12-3.11ZM240.53 29.09a6.34 6.34 0 0 0-1.93-.29 8.83 8.83 0 0 0-2.21.29ZM266.72 93.68h-7.57a5.05 5.05 0 0 0 3.62 1 8.13 8.13 0 0 0 3.95-1ZM244.23 33.32a5.57 5.57 0 0 0-1.77-3.15h-8.58a7.78 7.78 0 0 0-2.47 2.29c-.22.32-.41.6-.59.88ZM271.08 85.23h-18.79l2.18 3.12h16.33a9.65 9.65 0 0 0 .32-2.44 4.44 4.44 0 0 0-.04-.68ZM246.37 76.71l2.19 3.14 19.75-.01-2.25-3.08-19.69-.05zM249.33 81l2.19 3.13h19.31a12.6 12.6 0 0 0-1.7-3.07ZM243.41 72.47l2.19 3.15 19.62-.01-2.26-3.09-19.55-.05zM270.46 29.09h4.14a6.23 6.23 0 0 0-1.85-.28 8.71 8.71 0 0 0-2.29.28ZM235.07 79.85l.68-3.17-14.68-.03-.68 3.2h14.68zM235.97 75.62l.68-3.16-14.69-.04-.67 3.2h14.68zM234.18 84.08l.67-3.17-14.67-.03-.68 3.2h14.68zM236.87 71.39l.67-3.16-14.69-.04-.67 3.2h14.69zM228.74 93.59h-7.78a5.89 5.89 0 0 0 3.55 1.12 9.38 9.38 0 0 0 4.23-1.12ZM230.35 92.54a7.54 7.54 0 0 0 1.44-1.5 11.52 11.52 0 0 0 1-1.67h-14a6 6 0 0 0 1.16 3.21ZM233.15 88.31a32.28 32.28 0 0 0 .8-3.17h-14.67a23 23 0 0 0-.51 3.21ZM240.44 54.47l.66-3.15-14.67-.04-.68 3.19h14.69zM242.22 46.01l.66-3.15-14.67-.03-.67 3.18h14.68zM243.11 41.78l.66-3.14-14.67-.04-.67 3.18h14.68zM241.33 50.24l.66-3.15-14.67-.04-.67 3.19h14.68zM244 37.55a12.51 12.51 0 0 0 .33-2.9v-.24h-14.08a19 19 0 0 0-.94 3.18ZM255.95 62.93l-2.27-3.12-29.04-.07-.67 3.19h31.98zM254.21 58.7l3.71-3.11-32.39-.08-.67 3.19h29.35zM237.77 67.16l.45-2.11 1.47 2.11h19.35l-2.27-3.11-33.02-.08-.68 3.19h14.7z"/></g></g></svg>