<svg xmlns="http://www.w3.org/2000/svg" viewBox="0 0 326.49 75.88"><defs><style>.cls-1{fill:#c37646}</style></defs><g id="Calque_2" data-name="Calque 2"><g id="Calque_5" data-name="Calque 5"><path class="cls-1" d="M63.36 73.69a27.18 27.18 0 0 1-9.71-6.78C46.76 59.5 42 49.89 37.58 40.29c-.94 0-2.61 0-3.55-.1V45c0 4.8.1 9.39.52 13.78.52 5 1.57 7.09 3.13 9.18 2.51 3.24 7 4.49 10.23 5l-.1 1.46c-4.91 0-18.79-.21-25.47-.21-6.89 0-16.39.11-20.77.21l-.11-1.25a15.72 15.72 0 0 0 6.79-4.91C10.13 65.55 11.06 62 11.48 56c.21-3.34.42-9.81.42-13.68V38.2c0-7.62 0-14.3-.31-19.31s-.73-7.41-2.2-10.12A11.86 11.86 0 0 0 5 4.07 14.32 14.32 0 0 0 0 2.4l.1-1.25c4.18.1 15.35.21 20 .21 6.1 0 13.72-.36 20.5-.36 11.28 0 18.27.21 24.95 3.14 6.89 3 10.75 8.24 10.75 15.55 0 10.75-8.14 17.12-16.8 19.83C64 43 69 50.94 76.3 58.87 81.31 64.3 86.84 69 91.65 71.5a9.81 9.81 0 0 0 1.87-.21l.21 1.36c-4.07 1.67-11.58 2.71-18.89 2.71a35 35 0 0 1-11.48-1.67Zm-45.3-33.82v-4.38c0-22.55-.94-27.35-8-31.42 4.91 5.64 4.91 11.17 4.91 31.42v4.38c0 20.25 0 25.68-4.91 31.53 7.27-3.76 8-9.19 8-31.53Zm6.68 0v-4.38c0-19.52 0-23.59-1.67-31.94-1.78 8.35-1.78 12.45-1.78 31.94v4.38c0 19.52 0 23.7 1.78 32.05 1.67-8.46 1.67-12.53 1.67-32.05Zm6.37 0v-4.38c0-20.25.2-25.78 1.14-31.42C29.12 8.14 28 12.94 28 35.49v4.38c0 22.34.73 28.29 8.25 31.53-5.14-5.33-5.14-11.28-5.14-31.53Zm16.28-2.71c2.71-3.34 4.49-8.35 4.49-14.93a22.13 22.13 0 0 0-3.34-12.1 13.56 13.56 0 0 0-9.08-6.27 9.93 9.93 0 0 0-4.18.84C34.13 12.84 34 23.9 34 33.82v2.3c2.09.83 6.57 1.25 9.5 1.25 1.38 0 2.74-.11 3.89-.21Zm4 16.18-.94-1.46c-2.5-4-6-9-9.39-11.59 2.3 4.91 4.28 8.77 6.68 12.84l.73 1.25c7 11.9 12.84 15.45 18.79 17.33-4.63-3.03-8.81-7.31-15.91-18.37ZM58.87 21c0-8.87-5.12-16.18-12.63-17.64 4.59 2.51 9 8.87 9 18 0 8-1.57 12.53-3.87 15.77 4.63-3.62 7.5-8.32 7.5-16.13ZM57.2 50.21l-.73-1.15a43.43 43.43 0 0 0-7.93-8.77 40.1 40.1 0 0 0 4.69 10.33l.77 1.15c7.27 11.38 15.31 18.79 23 20.67-7.38-5.32-12.7-11.06-19.8-22.23Zm6.26-1.46L62.11 47a32.34 32.34 0 0 0-7.42-7.2 72.4 72.4 0 0 0 4.49 7.93l.73 1.15C67 60 78.08 70.56 86.22 71.81 79.33 67.64 72 60 63.46 48.75Zm2.4-28.19C65.86 13.57 63 8 58 4.91c2.3 3.34 4.28 8.45 4.28 15.86S61 33.09 58.56 36.53a20.42 20.42 0 0 0 7.3-15.97Zm6.89-.41a13.69 13.69 0 0 0-5.53-11.49 30 30 0 0 1 2.09 11.69A28.73 28.73 0 0 1 67 32.05a16.49 16.49 0 0 0 5.75-11.9ZM102.39 69.31c-6-5.12-8.24-11.69-8.24-20.77 0-3.24.21-8.46.21-14.3 0-4.8 0-14-.42-17.12-.42-3.45-.94-7.41-3.24-10.23a12.58 12.58 0 0 0-6.89-4.49l.11-1.25c5.63.1 13.67.31 20.87.31 8.77 0 16.29-.21 21.61-.31l.21 1.25a16.12 16.12 0 0 0-6.16 4.18c-1.77 2.08-2.92 5.53-3.24 8.87-.41 3.86-.41 9.81-.41 16v7.1a98.27 98.27 0 0 0 .31 9.91c.52 5.12 2 9.19 5 12.22 2.71 2.71 7.41 4.27 12.21 4.27s9.4-1 12.74-4a18.84 18.84 0 0 0 6.16-11.69 69 69 0 0 0 .78-10.53 108.52 108.52 0 0 0-1.15-14.51 31.78 31.78 0 0 0-6.68-15C143.41 6 140 3.34 137.46 2.4l.11-1.25c3 0 11.69.31 17.64.31s13.15-.21 16.18-.31l.21 1.36a15.13 15.13 0 0 0-5 4 31.26 31.26 0 0 0-6.06 10.75c-1.77 5.33-2.92 12.11-2.92 21.3v2.19c0 2.92-.1 6.57-.31 9.18-.53 6.79-2.4 12.74-6.16 17.12-4.91 5.74-12.21 8.87-23.8 8.87-10.45-.04-19.11-1.71-24.96-6.61Zm-1.88-23.38V35.49c0-22.55-.94-27.35-7.41-31.42 4.28 5.64 4.28 11.17 4.28 31.42v10.44c0 10.23 1.15 15 6.16 19.41-2.71-6.26-3.03-11.27-3.03-19.41Zm6.68-4.28v-6.16c0-19.52 0-23.59-1.77-31.94-1.67 8.35-1.67 12.42-1.67 31.94v5.11c0 21.51 3.34 27.66 17.33 30.59-9.92-5.12-13.89-10.13-13.89-29.54Zm27.14 26.2c-15.13-1-20.77-8-20.77-26.93v-5.43c0-20.25 0-25.78 4.91-31.42-7.1 4.07-8 8.87-8 31.42v8.87c0 16.08 7 24 20.25 24a11.63 11.63 0 0 0 3.61-.51Zm30.48-63.67c-3.34 0-6.37 2.4-7.93 5.74-.21-2.93-.52-4.81-1.36-6.37A22.27 22.27 0 0 0 154 9.81c-1.47-3.23-4.18-5.63-7.94-5.63 5 3.44 9 10.22 9.71 16.59 1.23-6.37 4.14-13.15 9.04-16.59Z"/><path class="cls-1" d="M190.48 74.11c-6.57 0-14.3 0-20.77.31l-.1-1.25a13.78 13.78 0 0 0 9.18-10.44c1.26-5.53 1.26-17.43 1.26-25.57s-.11-15.34-.53-20.77c-.41-5.22-1.77-8.14-4.17-10.65a11.11 11.11 0 0 0-6.79-3.34l.11-1.25c4.17.21 14.19.31 19.52.31 6.05 0 14.61-.31 21-.31 11.27 0 18.68.94 23.8 4.28 4.49 2.92 7 6.78 7 12.31a14.51 14.51 0 0 1-6 12.11c-3.76 2.93-8.24 4.6-14 5.54 6.16.62 12 1.87 16.71 5a14.77 14.77 0 0 1 7 13 17.76 17.76 0 0 1-9.29 16c-6.05 3.55-13.88 5.12-23.7 5.12-4.99.02-14.48-.4-20.23-.4Zm-4.28-34.24v-4.38c0-22.55-.93-27.35-8-31.42 4.9 5.64 4.9 11.17 4.9 31.42v4.38c0 20.25 0 25.68-4.9 31.53 7.27-3.76 8-9.19 8-31.53Zm6.69 0v-4.38c0-19.52 0-23.59-1.67-31.94-1.78 8.35-1.78 12.42-1.78 31.94v4.38c0 19.52 0 23.7 1.78 32.05 1.67-8.46 1.67-12.53 1.67-32.05Zm6.36 0v-4.38c0-20.25.21-25.78 1.15-31.42-3.13 4.07-4.28 8.87-4.28 31.42v4.38c0 22.34.31 28.6 6.26 31.53-3.13-4.6-3.13-11.28-3.13-31.53Zm15.66-5.63c1.77-2.61 2.71-7.1 2.71-12.42 0-5.85-2.08-12.32-6.36-15.77A11.72 11.72 0 0 0 207 4a10.18 10.18 0 0 0-3.55.73 48.75 48.75 0 0 0-.73 6.89c-.21 3.55-.52 11.17-.52 22.86a35.56 35.56 0 0 0 6.15.52 23.39 23.39 0 0 0 6.56-.76Zm.94 32.35A22.15 22.15 0 0 0 219 54.7c0-4.49-1-8.67-3.13-11.59a12.33 12.33 0 0 0-7.52-4.91c-2.5 0-4.28 0-6.15-.1v9.08c0 7.1.2 12.32.52 15.24a12.82 12.82 0 0 0 2.08 6 8.45 8.45 0 0 0 5.54 3 14.26 14.26 0 0 0 5.51-4.83ZM226 54.07c0-8.35-5.11-15.45-12.63-16.91 4.49 2.4 9 8.14 9 17.74a26.46 26.46 0 0 1-5.84 17c5.06-3.74 9.47-10 9.47-17.83Zm-2.29-34.45c0-9-5.12-13.46-8.77-15.44 3.13 3.86 5.74 9.08 5.74 17a63.33 63.33 0 0 1-1.15 11.38c1.96-3.75 4.15-7.09 4.15-12.94Zm6.78-1.35a16.11 16.11 0 0 0-6.47-13c1.67 2.82 3 7 3 14.09a41 41 0 0 1-1.57 11.59 19.89 19.89 0 0 0 5.01-12.68ZM233 53.44c0-6-2.72-11.69-7.83-14.71 2.3 3.23 4.28 7.93 4.28 15.55 0 6.78-1.57 11.27-3.76 14.92A21.3 21.3 0 0 0 233 53.44Zm4-35.38a11 11 0 0 0-5.32-9.61 22.26 22.26 0 0 1 2 9.92 21.7 21.7 0 0 1-2.19 10c3.15-2.48 5.51-6.03 5.51-10.31Zm2.82 35.7A12.67 12.67 0 0 0 234.33 43a27.37 27.37 0 0 1 2.08 11.17 27.58 27.58 0 0 1-2.29 11.38 15.73 15.73 0 0 0 5.74-11.79ZM262.61 73.17a21.21 21.21 0 0 0 5.74-3.86c2.4-2.4 3.34-5.53 4-8.66.52-2.51.73-4.49.73-13.16a94.54 94.54 0 0 0-6.58-18.26 84.74 84.74 0 0 0-9.71-16.39c-5.11-6.47-9.18-8.25-11.48-8.25a9.57 9.57 0 0 0-1.77.11l-.21-1.15C248.1 1.25 254.68 0 261.46 0c7.93 0 13.67 1.67 18.58 7.2 3.86 4.39 6.37 10.44 8.35 17A100 100 0 0 1 292 40.81h.32l.31-3.23c1.46-15.24 3.44-23.38 7-29.13S307.91 0 314.69 0a20.71 20.71 0 0 1 11.8 3.44l-.42 1.15c-7.83 3.66-14.61 11.38-19.73 19.1-4.69 7.1-8.87 15.66-10.85 23.18.31 13 .73 16.28 2.71 20a13.14 13.14 0 0 0 7.52 6.26l-.11 1.25c-5-.1-15.34-.31-21.71-.31s-17 .21-21.19.31ZM279.2 54c0-10.43-5.32-23.27-8.45-29.85-2.71-5.74-9.08-17.95-17-19.93 2.61 2 8.76 10.54 14.09 21.18 5.74 11.49 8.35 21 8.35 28.92a38.49 38.49 0 0 1-4.18 17c4.9-3.68 7.19-10.47 7.19-17.32Zm6.37-.31c0-10-5-23.07-7.93-29.43S268.77 6.16 263.23 4a56.62 56.62 0 0 0 2 3.34c2.09 3.23 4.59 7.2 9.39 18.05 5.11 11.61 7.82 20.85 7.82 27.61 0 12.42 0 14.71 1.57 18.26 1.46-3.52 1.56-5.92 1.56-17.61Zm6.37 1.25c-.31-7.82-2.19-14.82-7.31-30.68-3.55-11-9.29-17.44-15.13-20.25.83.83 6.16 5.42 12.31 21.39 4.07 10.55 6.68 22.55 7 29 .41 8.87.83 14.09 7.93 17.33-4.28-7.12-4.49-7.95-4.8-16.83Zm13.36-43.77c4.17-5.95 9.08-7.41 10.54-7.73a4 4 0 0 0-2.61-.62c-3.76 0-7.72 1.88-11.17 8-3.75 6.68-5.95 16.7-6.36 25.57 2.81-10.61 5.63-19.58 9.6-25.22Zm5.84 1.88A65.24 65.24 0 0 1 318 6.37c-4.07.41-6.68 2.08-9.49 5.63A52.86 52.86 0 0 0 300 29.54a120.49 120.49 0 0 1 11.14-16.49Z"/></g></g></svg>