<svg xmlns="http://www.w3.org/2000/svg" viewBox="0 0 326.49 75.88"><defs><style>.cls-1{fill:#c37646;}</style></defs><g id="Calque_2" data-name="Calque 2"><g id="Calque_5" data-name="Calque 5"><path class="cls-1" d="M63.36,73.69a27.18,27.18,0,0,1-9.71-6.78C46.76,59.5,42,49.89,37.58,40.29c-.94,0-2.61,0-3.55-.1V45c0,4.8.1,9.39.52,13.78.52,5,1.57,7.09,3.13,9.18,2.51,3.24,7,4.49,10.23,5l-.1,1.46c-4.91,0-18.79-.21-25.47-.21-6.89,0-16.39.11-20.77.21l-.11-1.25a15.72,15.72,0,0,0,6.79-4.91C10.13,65.55,11.06,62,11.48,56c.21-3.34.42-9.81.42-13.68V38.2c0-7.62,0-14.3-.31-19.31s-.73-7.41-2.2-10.12A11.86,11.86,0,0,0,5,4.07,14.32,14.32,0,0,0,0,2.4L.1,1.15c4.18.1,15.35.21,20,.21C26.2,1.36,33.82,1,40.6,1c11.28,0,18.27.21,24.95,3.14,6.89,3,10.75,8.24,10.75,15.55,0,10.75-8.14,17.12-16.8,19.83C64,43,69,50.94,76.3,58.87,81.31,64.3,86.84,69,91.65,71.5a9.81,9.81,0,0,0,1.87-.21l.21,1.36c-4.07,1.67-11.58,2.71-18.89,2.71A35,35,0,0,1,63.36,73.69ZM18.06,39.87V35.49c0-22.55-.94-27.35-8-31.42,4.91,5.64,4.91,11.17,4.91,31.42v4.38c0,20.25,0,25.68-4.91,31.53C17.33,67.64,18.06,62.21,18.06,39.87Zm6.68,0V35.49c0-19.52,0-23.59-1.67-31.94C21.29,11.9,21.29,16,21.29,35.49v4.38c0,19.52,0,23.7,1.78,32.05C24.74,63.46,24.74,59.39,24.74,39.87Zm6.37,0V35.49c0-20.25.2-25.78,1.14-31.42C29.12,8.14,28,12.94,28,35.49v4.38c0,22.34.73,28.29,8.25,31.53C31.11,66.07,31.11,60.12,31.11,39.87Zm16.28-2.71c2.71-3.34,4.49-8.35,4.49-14.93a22.13,22.13,0,0,0-3.34-12.1,13.56,13.56,0,0,0-9.08-6.27,9.93,9.93,0,0,0-4.18.84C34.13,12.84,34,23.9,34,33.82v2.3c2.09.83,6.57,1.25,9.5,1.25C44.88,37.37,46.24,37.26,47.39,37.16Zm4,16.18-.94-1.46c-2.5-4-6-9-9.39-11.59,2.3,4.91,4.28,8.77,6.68,12.84l.73,1.25c7,11.9,12.84,15.45,18.79,17.33C62.63,68.68,58.45,64.4,51.35,53.34ZM58.87,21c0-8.87-5.12-16.18-12.63-17.64,4.59,2.51,9,8.87,9,18,0,8-1.57,12.53-3.87,15.77C56,33.51,58.87,28.81,58.87,21ZM57.2,50.21l-.73-1.15a43.43,43.43,0,0,0-7.93-8.77,40.1,40.1,0,0,0,4.69,10.33L54,51.77C61.27,63.15,69.31,70.56,77,72.44,69.62,67.12,64.3,61.38,57.2,50.21Zm6.26-1.46L62.11,47a32.34,32.34,0,0,0-7.42-7.2,72.4,72.4,0,0,0,4.49,7.93l.73,1.15C67,60,78.08,70.56,86.22,71.81,79.33,67.64,72,60,63.46,48.75Zm2.4-28.19C65.86,13.57,63,8,58,4.91c2.3,3.34,4.28,8.45,4.28,15.86S61,33.09,58.56,36.53A20.42,20.42,0,0,0,65.86,20.56Zm6.89-.41A13.69,13.69,0,0,0,67.22,8.66a30,30,0,0,1,2.09,11.69A28.73,28.73,0,0,1,67,32.05,16.49,16.49,0,0,0,72.75,20.15Z"/><path class="cls-1" d="M102.39,69.31c-6-5.12-8.24-11.69-8.24-20.77,0-3.24.21-8.46.21-14.3,0-4.8,0-14-.42-17.12C93.52,13.67,93,9.71,90.7,6.89A12.58,12.58,0,0,0,83.81,2.4l.11-1.25c5.63.1,13.67.31,20.87.31,8.77,0,16.29-.21,21.61-.31l.21,1.25a16.12,16.12,0,0,0-6.16,4.18c-1.77,2.08-2.92,5.53-3.24,8.87-.41,3.86-.41,9.81-.41,16v7.1a98.27,98.27,0,0,0,.31,9.91c.52,5.12,2,9.19,5,12.22,2.71,2.71,7.41,4.27,12.21,4.27s9.4-1,12.74-4a18.84,18.84,0,0,0,6.16-11.69A69,69,0,0,0,154,38.73a108.52,108.52,0,0,0-1.15-14.51,31.78,31.78,0,0,0-6.68-15C143.41,6,140,3.34,137.46,2.4l.11-1.25c3,0,11.69.31,17.64.31s13.15-.21,16.18-.31l.21,1.36a15.13,15.13,0,0,0-5,4,31.26,31.26,0,0,0-6.06,10.75c-1.77,5.33-2.92,12.11-2.92,21.3v2.19c0,2.92-.1,6.57-.31,9.18-.53,6.79-2.4,12.74-6.16,17.12-4.91,5.74-12.21,8.87-23.8,8.87C116.9,75.88,108.24,74.21,102.39,69.31Zm-1.88-23.38V35.49c0-22.55-.94-27.35-7.41-31.42,4.28,5.64,4.28,11.17,4.28,31.42V45.93c0,10.23,1.15,15,6.16,19.41C100.83,59.08,100.51,54.07,100.51,45.93Zm6.68-4.28V35.49c0-19.52,0-23.59-1.77-31.94-1.67,8.35-1.67,12.42-1.67,31.94V40.6c0,21.51,3.34,27.66,17.33,30.59C111.16,66.07,107.19,61.06,107.19,41.65Zm27.14,26.2c-15.13-1-20.77-8-20.77-26.93V35.49c0-20.25,0-25.78,4.91-31.42-7.1,4.07-8,8.87-8,31.42v8.87c0,16.08,7,24,20.25,24A11.63,11.63,0,0,0,134.33,67.85ZM164.81,4.18c-3.34,0-6.37,2.4-7.93,5.74-.21-2.93-.52-4.81-1.36-6.37A22.27,22.27,0,0,0,154,9.81c-1.47-3.23-4.18-5.63-7.94-5.63,5,3.44,9,10.22,9.71,16.59C157,14.4,159.91,7.62,164.81,4.18Z"/><path class="cls-1" d="M190.48,74.11c-6.57,0-14.3,0-20.77.31l-.1-1.25a13.78,13.78,0,0,0,9.18-10.44c1.26-5.53,1.26-17.43,1.26-25.57s-.11-15.34-.53-20.77c-.41-5.22-1.77-8.14-4.17-10.65a11.11,11.11,0,0,0-6.79-3.34l.11-1.25c4.17.21,14.19.31,19.52.31,6.05,0,14.61-.31,21-.31,11.27,0,18.68.94,23.8,4.28,4.49,2.92,7,6.78,7,12.31a14.51,14.51,0,0,1-6,12.11c-3.76,2.93-8.24,4.6-14,5.54,6.16.62,12,1.87,16.71,5a14.77,14.77,0,0,1,7,13,17.76,17.76,0,0,1-9.29,16c-6.05,3.55-13.88,5.12-23.7,5.12C205.72,74.53,196.23,74.11,190.48,74.11ZM186.2,39.87V35.49c0-22.55-.93-27.35-8-31.42,4.9,5.64,4.9,11.17,4.9,31.42v4.38c0,20.25,0,25.68-4.9,31.53C185.47,67.64,186.2,62.21,186.2,39.87Zm6.69,0V35.49c0-19.52,0-23.59-1.67-31.94-1.78,8.35-1.78,12.42-1.78,31.94v4.38c0,19.52,0,23.7,1.78,32.05C192.89,63.46,192.89,59.39,192.89,39.87Zm6.36,0V35.49c0-20.25.21-25.78,1.15-31.42-3.13,4.07-4.28,8.87-4.28,31.42v4.38c0,22.34.31,28.6,6.26,31.53C199.25,66.8,199.25,60.12,199.25,39.87Zm15.66-5.63c1.77-2.61,2.71-7.1,2.71-12.42,0-5.85-2.08-12.32-6.36-15.77A11.72,11.72,0,0,0,207,4a10.18,10.18,0,0,0-3.55.73,48.75,48.75,0,0,0-.73,6.89c-.21,3.55-.52,11.17-.52,22.86a35.56,35.56,0,0,0,6.15.52A23.39,23.39,0,0,0,214.91,34.24Zm.94,32.35A22.15,22.15,0,0,0,219,54.7c0-4.49-1-8.67-3.13-11.59a12.33,12.33,0,0,0-7.52-4.91c-2.5,0-4.28,0-6.15-.1v9.08c0,7.1.2,12.32.52,15.24a12.82,12.82,0,0,0,2.08,6,8.45,8.45,0,0,0,5.54,3A14.26,14.26,0,0,0,215.85,66.59ZM226,54.07c0-8.35-5.11-15.45-12.63-16.91,4.49,2.4,9,8.14,9,17.74a26.46,26.46,0,0,1-5.84,17C221.59,68.16,226,61.9,226,54.07Zm-2.29-34.45c0-9-5.12-13.46-8.77-15.44,3.13,3.86,5.74,9.08,5.74,17a63.33,63.33,0,0,1-1.15,11.38C221.49,28.81,223.68,25.47,223.68,19.62Zm6.78-1.35a16.11,16.11,0,0,0-6.47-13c1.67,2.82,3,7,3,14.09a41,41,0,0,1-1.57,11.59A19.89,19.89,0,0,0,230.46,18.27ZM233,53.44c0-6-2.72-11.69-7.83-14.71,2.3,3.23,4.28,7.93,4.28,15.55,0,6.78-1.57,11.27-3.76,14.92A21.3,21.3,0,0,0,233,53.44ZM237,18.06a11,11,0,0,0-5.32-9.61,22.26,22.26,0,0,1,2,9.92,21.7,21.7,0,0,1-2.19,10C234.64,25.89,237,22.34,237,18.06Zm2.82,35.7A12.67,12.67,0,0,0,234.33,43a27.37,27.37,0,0,1,2.08,11.17,27.58,27.58,0,0,1-2.29,11.38A15.73,15.73,0,0,0,239.86,53.76Z"/><path class="cls-1" d="M262.61,73.17a21.21,21.21,0,0,0,5.74-3.86c2.4-2.4,3.34-5.53,4-8.66.52-2.51.73-4.49.73-13.16a94.54,94.54,0,0,0-6.58-18.26,84.74,84.74,0,0,0-9.71-16.39c-5.11-6.47-9.18-8.25-11.48-8.25a9.57,9.57,0,0,0-1.77.11l-.21-1.15C248.1,1.25,254.68,0,261.46,0c7.93,0,13.67,1.67,18.58,7.2,3.86,4.39,6.37,10.44,8.35,17A100,100,0,0,1,292,40.81h.32l.31-3.23c1.46-15.24,3.44-23.38,7-29.13S307.91,0,314.69,0a20.71,20.71,0,0,1,11.8,3.44l-.42,1.15c-7.83,3.66-14.61,11.38-19.73,19.1-4.69,7.1-8.87,15.66-10.85,23.18.31,13,.73,16.28,2.71,20a13.14,13.14,0,0,0,7.52,6.26l-.11,1.25c-5-.1-15.34-.31-21.71-.31s-17,.21-21.19.31ZM279.2,54c0-10.43-5.32-23.27-8.45-29.85-2.71-5.74-9.08-17.95-17-19.93,2.61,2,8.76,10.54,14.09,21.18,5.74,11.49,8.35,21,8.35,28.92a38.49,38.49,0,0,1-4.18,17C276.91,67.64,279.2,60.85,279.2,54Zm6.37-.31c0-10-5-23.07-7.93-29.43S268.77,6.16,263.23,4c.63,1.14,1.26,2.19,2,3.34,2.09,3.23,4.59,7.2,9.39,18.05C279.73,37,282.44,46.24,282.44,53c0,12.42,0,14.71,1.57,18.26C285.47,67.74,285.57,65.34,285.57,53.65Zm6.37,1.25c-.31-7.82-2.19-14.82-7.31-30.68-3.55-11-9.29-17.44-15.13-20.25.83.83,6.16,5.42,12.31,21.39,4.07,10.55,6.68,22.55,7,29,.41,8.87.83,14.09,7.93,17.33C292.46,64.61,292.25,63.78,291.94,54.9ZM305.3,11.17c4.17-5.95,9.08-7.41,10.54-7.73a4,4,0,0,0-2.61-.62c-3.76,0-7.72,1.88-11.17,8-3.75,6.68-5.95,16.7-6.36,25.57C298.51,25.78,301.33,16.81,305.3,11.17Zm5.84,1.88A65.24,65.24,0,0,1,318,6.37c-4.07.41-6.68,2.08-9.49,5.63A52.86,52.86,0,0,0,300,29.54,120.49,120.49,0,0,1,311.14,13.05Z"/></g></g></svg>