<svg xmlns="http://www.w3.org/2000/svg" viewBox="0 0 180.38 47.08"><defs><style>.cls-1{fill:#fe4463;}</style></defs><g id="Calque_2" data-name="Calque 2"><g id="Calque_1-2" data-name="Calque 1"><path class="cls-1" d="M25.88,47.08,0,46.85C.23,21,21.05,0,46.42,0s46.2,21,46.43,46.85L67,47.07c-.1-11.68-9.32-21.19-20.55-21.19S26,35.39,25.88,47.08"/><path class="cls-1" d="M92.86,47.08,67,46.85C67.21,21,88,0,113.4,0s46.2,21,46.43,46.85L134,47.07c-.1-11.68-9.32-21.19-20.55-21.19S93,35.39,92.86,47.08"/><path class="cls-1" d="M159.84,47.08,134,46.85C134.19,21,155,0,180.38,0V25.88c-11.22,0-20.44,9.51-20.54,21.2"/></g></g></svg>