<svg xmlns="http://www.w3.org/2000/svg" viewBox="0 0 365.34 100.57">
  <defs>
    <style>
      .cls-1{fill:#fff}
    </style>
  </defs>
  <g id="Calque_2" data-name="Calque 2">
    <g id="Calque_5" data-name="Calque 5">
      <path class="cls-1" d="M0 18.33h14.93v80.83h14.08V18.33h15.21V5.23H0v13.1zM71.67 3.82a21.21 21.21 0 0 0-16.48 7.47c-4.51 5.49-5.63 10.7-5.63 24.5V68.6c0 13.8 1.12 19 5.63 24.5a21.75 21.75 0 0 0 32.81 0c4.51-5.49 5.63-10.56 5.63-24.5V35.79c0-13.94-1.12-19-5.63-24.5a20.91 20.91 0 0 0-16.33-7.47Zm-8 33.52c0-7.61.28-12.39.7-14.23 1-3.94 3.66-6.19 7.33-6.19 3.24 0 5.77 2 6.9 5.35.7 2 1 5.91 1 15.07v29.71c0 7.89-.28 12.39-.7 14.22-1 4-3.66 6.2-7.18 6.2s-5.92-2-7-5.35c-.7-2-1-6.2-1-15.07ZM356.78 11.29a20.91 20.91 0 0 0-16.33-7.47A21.21 21.21 0 0 0 324 11.29c-4.51 5.49-5.63 10.7-5.63 24.5V68.6c0 13.8 1.12 19 5.63 24.5a21.75 21.75 0 0 0 32.81 0c4.51-5.49 5.63-10.56 5.63-24.5V35.79c-.03-13.94-1.15-19.01-5.66-24.5Zm-24.36 26.05c0-7.61.28-12.39.7-14.23 1-3.94 3.66-6.19 7.33-6.19 3.24 0 5.77 2 6.9 5.35.7 2 1 5.91 1 15.07v29.71c0 7.89-.28 12.39-.7 14.22-1 4-3.66 6.2-7.18 6.2s-5.92-2-7.05-5.35c-.7-2-1-6.2-1-15.07ZM188.67 60.99 169.38 5.23h-14.23v93.93h13.1V41.14l20.42 58.02h13.09V5.23h-13.09v55.76zM286 5.23h-20v93.93h20c16.19 0 23.8-8.45 23.8-26.48v-41c-.04-18-7.65-26.45-23.8-26.45ZM295.67 70c0 7-.56 9.86-2.39 12.39s-4.93 3.66-8.87 3.66H280V18.33h4.37c3.94 0 7 1.26 8.87 3.66s2.39 5.35 2.39 12.39ZM146 32.41c0-18.73-7.18-27.18-23.52-27.18h-19.7v93.93h14.08V59.87h6.76l8.87 39.29h14.93l-10.85-43.09C143.47 51 146 44.52 146 32.41Zm-29.14 14.36V18.33h4.51c4.5 0 6.33.56 7.74 2.53 1.83 2.11 2.82 6.62 2.82 11.69 0 4.79-1 9-2.4 11.27s-3.38 3-8.16 3ZM224.85 5.23 209.5 99.16h13.94l3.24-20.7h15.07l3.25 20.7h14.5L243.16 5.23Zm14.79 60.13h-11L234 27.9Z"/>
      <path d="M31.93 95.33H17.85V14.5H2.92V1.41h44.22V14.5H31.93Z"/>
      <path class="cls-1" d="M8.76 7.37h33.05v.78H8.76z"/>
      <path class="cls-1" d="M24.44 7.85h.78v81.19h-.78z"/>
      <path d="M96.56 64.78c0 13.94-1.13 19-5.64 24.5a21.77 21.77 0 0 1-32.81 0c-4.5-5.49-5.63-10.7-5.63-24.5V32c0-13.8 1.13-19 5.63-24.51A21.25 21.25 0 0 1 74.59 0a20.92 20.92 0 0 1 16.33 7.46C95.43 13 96.56 18 96.56 32Zm-30-1.55c0 8.87.28 13.09 1 15.07a7.18 7.18 0 0 0 7 5.35c3.52 0 6.19-2.26 7.18-6.2.42-1.83.7-6.34.7-14.22V33.51c0-9.15-.28-13.09-1-15.06-1.13-3.38-3.66-5.35-6.9-5.35-3.66 0-6.34 2.25-7.32 6.19-.43 1.83-.71 6.62-.71 14.22Z"/>
      <path class="cls-1" d="M73.86 90.83c-7.86 0-11.68-4.31-13.51-7.92a13.62 13.62 0 0 1-1.41-6.11V20.12a13.42 13.42 0 0 1 2.52-8c2-2.72 6-6 13.7-6 7.85 0 11.68 4.31 13.5 7.92a13.52 13.52 0 0 1 1.41 6.11v56.71a13.45 13.45 0 0 1-2.51 8c-2 2.72-6 5.97-13.7 5.97Zm1.3-83.92c-5.92 0-10.32 1.91-13.07 5.66a12.63 12.63 0 0 0-2.37 7.55V76.8A12.93 12.93 0 0 0 61 82.56c1.73 3.42 5.36 7.5 12.82 7.5 5.92 0 10.32-1.91 13.07-5.66a12.62 12.62 0 0 0 2.37-7.54V20.17A12.8 12.8 0 0 0 88 14.41c-1.76-3.41-5.38-7.5-12.84-7.5Z"/>
      <path d="M365.34 64.78c0 13.94-1.13 19-5.64 24.5a21.77 21.77 0 0 1-32.81 0c-4.5-5.49-5.63-10.7-5.63-24.5V32c0-13.8 1.13-19 5.63-24.51A21.25 21.25 0 0 1 343.37 0a20.92 20.92 0 0 1 16.33 7.46C364.21 13 365.34 18 365.34 32Zm-30-1.55c0 8.87.28 13.09 1 15.07a7.18 7.18 0 0 0 7 5.35c3.52 0 6.19-2.26 7.18-6.2.42-1.83.7-6.34.7-14.22V33.51c0-9.15-.28-13.09-1-15.06-1.13-3.38-3.66-5.35-6.9-5.35-3.66 0-6.34 2.25-7.32 6.19-.43 1.83-.71 6.62-.71 14.22Z"/>
      <path class="cls-1" d="M342.48 90.83c-7.8 0-11.6-4.31-13.42-7.92a13.77 13.77 0 0 1-1.39-6.11V20.12a13.53 13.53 0 0 1 2.49-8c2-2.72 6-6 13.6-6 7.8 0 11.6 4.31 13.41 7.92a13.64 13.64 0 0 1 1.4 6.11v56.71a13.46 13.46 0 0 1-2.5 8c-1.98 2.72-5.95 5.97-13.59 5.97Zm1.28-83.92c-5.87 0-10.24 1.91-13 5.66a12.75 12.75 0 0 0-2.35 7.55V76.8a12.93 12.93 0 0 0 1.32 5.76c1.71 3.42 5.31 7.5 12.72 7.5 5.87 0 10.23-1.91 13-5.66a12.74 12.74 0 0 0 2.34-7.54V20.17a12.92 12.92 0 0 0-1.31-5.76c-1.72-3.41-5.32-7.5-12.72-7.5Z"/>
      <path d="m191.59 95.33-20.42-58v58h-13.09V1.41h14.22l19.29 55.76V1.41h13.1v93.92Z"/>
      <path class="cls-1" d="M197.78 89.19 164.97 9.81v79.23h-.78V7.85l.75-.15 32.81 79.38V7.85h.78v81.19l-.75.15z"/>
      <path d="M268.88 1.41h20c16.2 0 23.8 8.45 23.8 26.47v41c0 18-7.6 26.47-23.8 26.47h-20Zm18.45 80.83c3.95 0 7-1.27 8.87-3.66s2.4-5.35 2.4-12.39V30.56c0-7-.57-9.86-2.4-12.39s-4.92-3.67-8.87-3.67H283v67.74Z"/>
      <path class="cls-1" d="M288.63 89h-13.36V7.46h16a14.24 14.24 0 0 1 14.2 14.24v50.5A16.83 16.83 0 0 1 288.63 89Zm-12.58-.78h12.58a16.06 16.06 0 0 0 16.06-16.02V21.7a13.45 13.45 0 0 0-13.46-13.46h-15.18Z"/>
      <path d="M119.78 95.33H105.7V1.41h19.72c16.33 0 23.51 8.45 23.51 27.18 0 12.11-2.53 18.58-9.43 23.65l10.84 43.09h-14.93l-8.87-39.28h-6.76ZM124.29 43c4.79 0 6.62-.7 8.17-3 1.4-2.25 2.39-6.48 2.39-11.26 0-5.07-1-9.58-2.82-11.69-1.4-2-3.23-2.54-7.74-2.54h-4.51V43Z"/>
      <path class="cls-1" d="M113.1 89h-.77V7.46h13.85a14.78 14.78 0 0 1 14 9.86 35 35 0 0 1 1.74 11.46c0 10.19-3.9 15.72-7.17 18.56a9.2 9.2 0 0 1-6 2.26l-15.71.14Zm0-80.8V49l15.7-.14a8.46 8.46 0 0 0 5.46-2.06c3.15-2.74 6.9-8.09 6.9-18a34.55 34.55 0 0 0-1.69-11.2 14 14 0 0 0-13.29-9.34Z"/>
      <path class="cls-1" transform="rotate(-14.72 136.337 69.087)" d="M135.94 48.51h.78v41.15h-.78z"/>
      <path d="m229.6 74.63-3.23 20.7h-14l15.4-93.92h18.31l16.34 93.92h-14.51l-3.24-20.7Zm7.33-50.55-5.35 37.46h11Z"/>
      <path class="cls-1" d="M254.01 89.11 240.52 8.24h-6.76L221.22 89.1l-.77-.12 12.59-81.19.39-.33h7.42l.38.33 13.55 81.19-.77.13z"/>
      <path class="cls-1" d="M224.43 67.52h26.08v.78h-26.08z"/>
    </g>
  </g>
</svg>
